<ttFont>
<head>
    <!-- Most of this table will be recalculated by the compiler -->
    <tableVersion value="1.0"/>
    <fontRevision value="4.002"/>
    <checkSumAdjustment value="0x18e0e835"/>
    <magicNumber value="0x5f0f3cf5"/>
    <flags value="00000000 00000011"/>
    <unitsPerEm value="1000"/>
    <created value="Sat Mar  2 14:08:28 2019"/>
    <modified value="Sat Mar  2 14:08:28 2019"/>
    <xMin value="-552"/>
    <yMin value="-593"/>
    <xMax value="2574"/>
    <yMax value="1091"/>
    <macStyle value="00000000 00000010"/>
    <lowestRecPPEM value="3"/>
    <fontDirectionHint value="2"/>
    <indexToLocFormat value="0"/>
    <glyphDataFormat value="0"/>
  </head>
          <CharString index="0">
            44 7 -28 35 -44 hhcurveto
            -44 -40 -35 -94 callgsubr
            return
          </CharString>
          <CharString index="1">
            -101 callsubr
            487 431 rmoveto
            19 108 rlineto
            return
          </CharString>
          <CharString index="2">
            rmoveto
            -69 -45 162 callsubr
            82 28 -63 -61 -11 hvcurveto
            -1 -5 -11 -54 -48 -63 -82 -1 rlinecurve
            return
          </CharString>
          <CharString index="3">
            -83 callgsubr
            -103 callgsubr
            return
          </CharString>
          <CharString index="4">
            -30 callsubr
            -141 -26 78 -95 121 hhcurveto
            76 59 33 49 38 hvcurveto
            return
          </CharString>
          <CharString index="5">
            108 rlineto
            return
          </CharString>
          <CharString index="6">
            -96 callgsubr
            -101 -17 -79 -71 -105 hhcurveto
            return
          </CharString>
          <CharString index="7">
            21 113 rlineto
            -1 -10 -8 -1 -8 hhcurveto
            -84 -36 158 callsubr
            return
          </CharString>
          <CharString index="8">
            -132 -111 -173 -30 hvcurveto
            435 -2 rmoveto
            -105 -18 -81 -58 -76 hhcurveto
            -75 -60 60 105 18 hvcurveto
            105 19 81 56 75 hhcurveto
            76 60 -58 -105 -19 hvcurveto
            return
          </CharString>
          <CharString index="9">
            hvcurveto
            -2 hlineto
            -104 callsubr
            return
          </CharString>
          <CharString index="10">
            129 -102 callgsubr
            return
          </CharString>
          <CharString index="11">
            -61 -10 -32 -45 -56 hhcurveto
            -59 20 callgsubr
            21 116 rlineto
            return
          </CharString>
          <CharString index="12">
            rmoveto
            40 38 35 43 32 -22 23 -33 -42 -38 -36 -43 -31 24 -23 33 hvcurveto
            185 hmoveto
            40 38 35 43 32 -22 23 -33 -42 -38 -36 -43 -31 24 -23 33 hvcurveto
            return
          </CharString>
          <CharString index="13">
            118 callsubr
            20 -64 -79 -15 hvcurveto
            return
          </CharString>
          <CharString index="14">
            hlineto
            -78 callgsubr
            return
          </CharString>
          <CharString index="15">
            -89 callgsubr
            hstemhm
            return
          </CharString>
          <CharString index="16">
            607 329 rmoveto
            140 -99 94 -144 -194 -145 -149 -190 -139 97 -94 143 193 149 146 192 vhcurveto
            -437 -95 rmoveto
            108 69 101 105 64 54 -41 -84 -106 -74 -101 -104 -65 -49 41 82 vhcurveto
            return
          </CharString>
          <CharString index="17">
            rmoveto
            4 21 rlineto
            -75 hlineto
            -44 -8 -24 -26 -65 hhcurveto
            -65 -16 26 44 8 hvcurveto
            -74 hlineto
            -4 -21 rlineto
            -96 -17 53 -59 96 hhcurveto
            98 72 58 97 17 hvcurveto
            return
          </CharString>
          <CharString index="18">
            -83 callsubr
            135 86 86 130 14 hvcurveto
            return
          </CharString>
          <CharString index="19">
            110 callgsubr
            -73 callsubr
            return
          </CharString>
          <CharString index="20">
            45 callsubr
            406 hlineto
            20 111 rlineto
            -265 hlineto
            33 189 rlineto
            235 -22 callsubr
            -235 hlineto
            32 181 rlineto
            265 hlineto
            return
          </CharString>
          <CharString index="21">
            -120 -22 67 -73 120 hhcurveto
            132 68 89 111 19 hvcurveto
            42 242 rlineto
            return
          </CharString>
          <CharString index="22">
            -18 -108 return
          </CharString>
          <CharString index="23">
            -155 -26 105 -104 163 267 callsubr
            123 hlineto
            return
          </CharString>
          <CharString index="24">
            -60 callsubr
            -64 callgsubr
            return
          </CharString>
          <CharString index="25">
            hintmask 10101100
            -8 callsubr
            hintmask 01011100
            -15 -81 rlineto
            8 callgsubr
            hintmask 10101100
            -14 -79 rlineto
            46 -24 -54 42 -89 hhcurveto
            -141 -99 callsubr
            return
          </CharString>
          <CharString index="26">
            351 callsubr
            745 349 rmoveto
            -58 callgsubr
            return
          </CharString>
          <CharString index="27">
            hhcurveto
            -84 callgsubr
            return
          </CharString>
          <CharString index="28">
            rmoveto
            -83 -63 505 callsubr
            15 21 206 -191 rcurveline
            -21 -29 -37 -14 -42 hhcurveto
            return
          </CharString>
          <CharString index="29">
            -130 -23 73 -89 130 520 callsubr
            return
          </CharString>
          <CharString index="30">
            137 callsubr
            -119 -17 95 -74 147 hhcurveto
            192 callgsubr
            return
          </CharString>
          <CharString index="31">
            rmoveto
            66 11 51 42 66 hhcurveto
            67 35 -42 -66 -11 hvcurveto
            -66 -12 -50 -42 -67 hhcurveto
            -66 -36 42 66 12 hvcurveto
            return
          </CharString>
          <CharString index="32">
            351 callgsubr
            512 callsubr
            130 232 callgsubr
            return
          </CharString>
          <CharString index="33">
            -51 -26 38 54 10 hvcurveto
            388 callsubr
            166 hlineto
            -48 -272 rlineto
            -54 -10 -36 -38 -53 hhcurveto
            return
          </CharString>
          <CharString index="34">
            -115 -21 70 -12 callsubr
            return
          </CharString>
          <CharString index="35">
            -69 callgsubr
            47 96 hhcurveto
            return
          </CharString>
          <CharString index="36">
            -73 -13 -61 -35 -55 hhcurveto
            -73 -39 49 73 13 hvcurveto
            83 14 71 44 85 hhcurveto
            167 hlineto
            return
          </CharString>
          <CharString index="37">
            rmoveto
            142 hlineto
            -93 callgsubr
            hvcurveto
            return
          </CharString>
          <CharString index="38">
            hlineto
            -19 -46 callgsubr
            return
          </CharString>
          <CharString index="39">
            120 callgsubr
            87 19 callgsubr
            return
          </CharString>
          <CharString index="40">
            1 callgsubr
            -36 -204 return
          </CharString>
          <CharString index="41">
            hlineto
            -28 -162 -36 callgsubr
            return
          </CharString>
          <CharString index="42">
            -67 callsubr
            rlineto
            return
          </CharString>
          <CharString index="43">
            -56 callgsubr
            259 hlineto
            -16 -93 rlineto
            -102 -17 -59 -36 -86 hhcurveto
            -29 hlineto
            -24 -137 rlineto
            return
          </CharString>
          <CharString index="44">
            -107 callgsubr
            453 hlineto
            -30 callsubr
            return
          </CharString>
          <CharString index="45">
            -9 callsubr
            -28 -160 -20 34 -39 24 -63 2 rlinecurve
            -107 2 -95 -75 -20 -119 -12 -67 14 -58 32 -40 rrcurveto
            -36 -28 -46 -33 -66 hhcurveto
            return
          </CharString>
          <CharString index="46">
            8 callsubr
            -52 callgsubr
            return
          </CharString>
          <CharString index="47">
            -86 -16 -52 -59 -111 hhcurveto
            -81 hlineto
            -35 -196 rlineto
            return
          </CharString>
          <CharString index="48">
            34 50 -55 callsubr
            return
          </CharString>
          <CharString index="49">
            hvcurveto
            122 4 callgsubr
            return
          </CharString>
          <CharString index="50">
            -71 callgsubr
            -53 -304 -79 callsubr
            return
          </CharString>
          <CharString index="51">
            6 31 rlineto
            -125 hlineto
            -2 -10 -2 -11 -2 -10 rrcurveto
            return
          </CharString>
          <CharString index="52">
            47 -49 callgsubr
            return
          </CharString>
          <CharString index="53">
            18 -102 callsubr
            return
          </CharString>
          <CharString index="54">
            55 callsubr
            -68 callsubr
            97 callsubr
            return
          </CharString>
          <CharString index="55">
            -53 66 95 18 -58 callsubr
            167 hlineto
            -46 return
          </CharString>
          <CharString index="56">
            -82 callgsubr
            -10 callgsubr
            return
          </CharString>
          <CharString index="57">
            -47 -32 32 53 10 hvcurveto
            54 9 46 31 57 hhcurveto
            71 274 callsubr
            -11 -35 -41 -56 hhcurveto
            return
          </CharString>
          <CharString index="58">
            266 632 rmoveto
            -37 callsubr
            return
          </CharString>
          <CharString index="59">
            -107 -52 callsubr
            return
          </CharString>
          <CharString index="60">
            416 callgsubr
            126 -147 202 hhcurveto
            155 140 82 144 73 hvcurveto
            -161 hlineto
            -65 -44 -67 -33 -75 hhcurveto
            -122 -71 90 350 callgsubr
            139 24 102 89 123 hhcurveto
            75 54 -33 -64 22 hvcurveto
            161 hlineto
            143 -22 -112 83 -155 hhcurveto
            -201 -178 -148 -209 -37 hvcurveto
            return
          </CharString>
          <CharString index="61">
            -93 callsubr
            325 151 callsubr
            return
          </CharString>
          <CharString index="62">
            -107 callgsubr
            314 hlineto
            3 callgsubr
            return
          </CharString>
          <CharString index="63">
            rlineto
            -37 callgsubr
            return
          </CharString>
          <CharString index="64">
            -71 -13 -38 257 callgsubr
            49 61 11 hvcurveto
            15 85 rlineto
            59 hlineto
            146 130 72 157 29 hvcurveto
            return
          </CharString>
          <CharString index="65">
            -9 116 -116 123 -114 114 124 85 -85 316 -114 123 -115 115 396 callsubr
            299 134 -134 580 hintmask 1001001110000000
            786 448 rmoveto
            79 53 -48 -77 -12 hvcurveto
            -287 hlineto
            79 27 69 46 71 hhcurveto
            224 -274 rmoveto
            -152 hlineto
            -39 -23 -44 -28 -67 hhcurveto
            -65 -59 42 89 4 hvcurveto
            427 hlineto
            6 18 5 18 3 16 rrcurveto
            hintmask 1001010101000000
            161 28 -85 112 -149 hhcurveto
            -79 -66 -26 -61 -57 hvcurveto
            hintmask 1000100101000000
            14 78 rlineto
            -135 hlineto
            hintmask 1001010101000000
            -14 -78 rlineto
            57 -30 -56 30 -77 hhcurveto
            -146 -132 -111 -173 -30 hvcurveto
            -173 -31 92 -115 142 hhcurveto
            81 71 40 51 47 hvcurveto
            hintmask 0011010100000000
            -15 -82 rlineto
            135 hlineto
            hintmask 1001010100000000
            15 82 rlineto
            -53 26 62 -38 82 hhcurveto
            hintmask 1001001110000000
            126 98 81 102 48 hvcurveto
            hintmask 0101010110000000
            -836 105 rmoveto
            105 19 81 56 75 hhcurveto
            76 60 -58 -105 -19 hvcurveto
            -105 -18 -81 -58 -76 hhcurveto
            -75 -60 60 105 18 hvcurveto
            return
          </CharString>
          <CharString index="66">
            210 -253 rmoveto
            -107 -53 66 95 18 hvcurveto
            111 10 75 60 22 123 279 callsubr
            -80 -71 -104 30 callsubr
            return
          </CharString>
          <CharString index="67">
            -41 -235 -42 callgsubr
            return
          </CharString>
          <CharString index="68">
            -64 callgsubr
            -47 callgsubr
            return
          </CharString>
          <CharString index="69">
            -3 -21 rlineto
            107 hlineto
            4 21 rlineto
            return
          </CharString>
          <CharString index="70">
            111 -45 callgsubr
            return
          </CharString>
          <CharString index="71">
            rmoveto
            -57 -42 38 70 12 hvcurveto
            66 12 53 39 58 hhcurveto
            69 24 -51 -48 -6 hvcurveto
            -3 -16 rlineto
            -49 -11 -42 -49 -67 hhcurveto
            return
          </CharString>
          <CharString index="72">
            31 277 rmoveto
            -174 -32 95 -112 161 hhcurveto
            137 107 78 118 51 hvcurveto
            -151 hlineto
            -50 -26 -40 -26 -58 hhcurveto
            -78 -42 58 108 19 hvcurveto
            108 19 62 59 78 hhcurveto
            58 32 -30 -47 8 hvcurveto
            151 hlineto
            124 -9 -80 72 -138 hhcurveto
            -160 -134 -112 -174 -30 hvcurveto
            return
          </CharString>
          <CharString index="73">
            547 callgsubr
            -126 -23 76 -87 131 0 callsubr
            return
          </CharString>
          <CharString index="74">
            rmoveto
            -50 callsubr
            return
          </CharString>
          <CharString index="75">
            rmoveto
            -133 86 -19 -102 134 -84 164 84 18 102 rlineto
            endchar
          </CharString>
          <CharString index="76">
            125 22 -91 52 -107 hhcurveto
            -44 hlineto
            -42 -33 15 45 7 hvcurveto
            return
          </CharString>
          <CharString index="77">
            -30 -172 rlineto
            49 -21 518 callgsubr
            return
          </CharString>
          <CharString index="78">
            hhcurveto
            131 -5 callgsubr
            return
          </CharString>
          <CharString index="79">
            74 42 63 71 53 30 -40 -59 -10 vhcurveto
            -95 -17 -92 -35 -94 hhcurveto
            -142 hlineto
            -33 -185 rlineto
            return
          </CharString>
          <CharString index="80">
            -28 -159 rlineto
            124 hlineto
            return
          </CharString>
          <CharString index="81">
            -69 callsubr
            129 hlineto
            return
          </CharString>
          <CharString index="82">
            -1 12 1 11 2 11 rrcurveto
            49 9 32 81 callsubr
            -83 rlineto
            return
          </CharString>
          <CharString index="83">
            172 -273 -23 93 vvcurveto
            35 34 22 48 59 32 -31 -46 -4 vhcurveto
            130 hlineto
            107 11 -87 76 -135 hhcurveto
            -134 -91 -69 -98 hvcurveto
            -180 275 28 -90 vvcurveto
            -39 -43 -18 -50 -59 -34 32 46 4 vhcurveto
            -136 hlineto
            -108 -16 98 -76 133 hhcurveto
            return
          </CharString>
          <CharString index="84">
            109 19 -70 71 -122 hhcurveto
            -127 -100 -77 -118 -21 hvcurveto
            119 hlineto
            52 9 47 34 53 hhcurveto
            51 33 -34 -55 -9 hvcurveto
            -46 -9 -42 -40 -67 hhcurveto
            return
          </CharString>
          <CharString index="85">
            hlineto
            -104 callgsubr
            return
          </CharString>
          <CharString index="86">
            10 59 rlineto
            150 hlineto
            10 callsubr
          </CharString>
          <CharString index="87">
            164 29 -94 109 -160 hhcurveto
            -164 -133 -111 -175 -31 hvcurveto
            return
          </CharString>
          <CharString index="88">
            72 14 44 18 callgsubr
            return
          </CharString>
          <CharString index="89">
            -145 -28 63 -103 139 hhcurveto
            63 50 23 38 37 hvcurveto
            return
          </CharString>
          <CharString index="90">
            -102 callgsubr
            110 hlineto
            return
          </CharString>
          <CharString index="91">
            283 rmoveto
            13 callgsubr
            return
          </CharString>
          <CharString index="92">
            257 callsubr
            172 hlineto
            479 callgsubr
            -208 hlineto
            451 callsubr
            return
          </CharString>
          <CharString index="93">
            240 243 rmoveto
            -44 -243 128 callgsubr
            43 243 316 455 rlineto
            -158 hlineto
            -204 -317 -93 317 rlineto
            -158 hlineto
            return
          </CharString>
          <CharString index="94">
            309 441 callgsubr
            return
          </CharString>
          <CharString index="95">
            -78 124 -29 callsubr
            return
          </CharString>
          <CharString index="96">
            -119 -104 -69 -113 -19 hvcurveto
            -16 -92 49 -57 64 -24 -87 -39 -84 -49 -19 -106 rrcurveto
            -101 -18 62 -69 107 hhcurveto
            70 49 35 29 23 hvcurveto
            return
          </CharString>
          <CharString index="97">
            rmoveto
            -84 -63 56 94 18 hvcurveto
            5 28 11 26 15 21 205 -190 rcurveline
            -22 -28 -36 -13 -43 hhcurveto
            return
          </CharString>
          <CharString index="98">
            rmoveto
            -88 callgsubr
            362 hlineto
            return
          </CharString>
          <CharString index="99">
            66 callgsubr
            140 hhcurveto
            88 71 42 48 41 hvcurveto
            return
          </CharString>
          <CharString index="100">
            544 callsubr
            71 43 48 41 hvcurveto
            -15 -86 rlineto
            -103 -19 -66 -44 -78 hhcurveto
            -69 -47 33 50 -5 hvcurveto
            -139 hlineto
            -127 -8 94 -78 156 hhcurveto
            182 113 119 150 27 hvcurveto
            return
          </CharString>
          <CharString index="101">
            15 -16 116 233 101 203 116 hstemhm
            40 535 -456 498 hintmask 11101000
            193 394 rmoveto
            -77 -30 -56 -64 -16 -89 rrcurveto
            hintmask 11110000
            -143 -26 99 -84 150 hhcurveto
            150 129 84 143 26 hvcurveto
            15 89 -34 63 -67 31 62 29 52 55 14 77 rrcurveto
            hintmask 11101000
            102 18 -63 96 -166 hhcurveto
            -166 -97 -95 -103 -18 hvcurveto
            -14 -80 31 -51 54 -30 rrcurveto
            hintmask 11110000
            189 243 rmoveto
            67 37 -36 -66 -11 hvcurveto
            -60 -11 -54 -41 -63 hhcurveto
            -64 -39 40 60 11 hvcurveto
            67 12 50 36 65 hhcurveto
            -54 -304 rmoveto
            75 46 -41 -75 -14 hvcurveto
            -68 -11 -57 -49 -79 hhcurveto
            -81 -40 48 69 13 hvcurveto
            78 13 62 38 73 hhcurveto
            endchar
          </CharString>
          <CharString index="102">
            rlineto
            -141 hlineto
            return
          </CharString>
          <CharString index="103">
            29 34 21 44 9 54 rrcurveto
            return
          </CharString>
          <CharString index="104">
            hlineto
            -160 -139 -70 -174 -30 hvcurveto
            -72 callsubr
            return
          </CharString>
          <CharString index="105">
            29 162 rlineto
            -129 hlineto
            -29 -161 rlineto
            return
          </CharString>
          <CharString index="106">
            42 callgsubr
            -210 return
          </CharString>
          <CharString index="107">
            hhcurveto
            136 78 92 194 callgsubr
            47 260 rlineto
            return
          </CharString>
          <CharString index="108">
            hlineto
            -58 callgsubr
            return
          </CharString>
          <CharString index="109">
            -133 -24 82 -101 148 hhcurveto
            133 96 80 100 27 hvcurveto
            -124 hlineto
            -36 -16 -44 -37 -60 hhcurveto
            -70 -37 47 71 14 hvcurveto
            return
          </CharString>
          <CharString index="110">
            64 15 46 56 75 hhcurveto
            67 38 -51 -70 -12 hvcurveto
            return
          </CharString>
          <CharString index="111">
            -30 -172 rlineto
            return
          </CharString>
          <CharString index="112">
            rlineto
            128 19 callsubr
          </CharString>
          <CharString index="113">
            rmoveto
            -85 -480 -232 480 rlineto
            -140 251 callgsubr
            85 479 231 -479 474 callsubr
            699 rlineto
            return
          </CharString>
          <CharString index="114">
            284 callsubr
            -6 callgsubr
            return
          </CharString>
          <CharString index="115">
            61 callsubr
            150 hlineto
            return
          </CharString>
          <CharString index="116">
            -85 callgsubr
            hstemhm
            return
          </CharString>
          <CharString index="117">
            -63 403 callsubr
            endchar
          </CharString>
          <CharString index="118">
            rmoveto
            -109 -52 62 96 18 hvcurveto
            1 3 122 90 callgsubr
            rlinecurve
            14 77 rlineto
            166 140 callgsubr
            return
          </CharString>
          <CharString index="119">
            rmoveto
            98 42 -74 -78 -13 hvcurveto
            -5 -25 -10 -26 -16 -23 539 callgsubr
            rcurveline
            23 31 38 12 39 hhcurveto
            return
          </CharString>
          <CharString index="120">
            -27 callsubr
            55 return
          </CharString>
          <CharString index="121">
            -106 callgsubr
            719 339 rmoveto
            -104 callgsubr
            return
          </CharString>
          <CharString index="122">
            46 callsubr
            hintmask 11101000
            293 callgsubr
            69 callsubr
            167 callgsubr
            hintmask 11011000
            43 callsubr
          </CharString>
          <CharString index="123">
            vstem
            0 callgsubr
            return
          </CharString>
          <CharString index="124">
            rmoveto
            211 -105 18 100 -209 119 rlineto
            return
          </CharString>
          <CharString index="125">
            104 -104 298 9 callsubr
            return
          </CharString>
          <CharString index="126">
            90 callsubr
            endchar
          </CharString>
          <CharString index="127">
            -168 -276 583 callsubr
            487 816 rlineto
            -149 hlineto
            -215 -387 -74 387 rlineto
            -157 hlineto
            return
          </CharString>
          <CharString index="128">
            111 -111 return
          </CharString>
          <CharString index="129">
            12 -2 119 248 115 151 115 hstem
            68 126 249 135 vstem
            606 547 rmoveto
            103 7 -53 96 -149 hhcurveto
            -185 -100 -132 -238 -42 hvcurveto
            -226 -40 27 -152 216 hhcurveto
            157 105 103 141 24 hvcurveto
            152 27 -76 86 -129 hhcurveto
            -71 -72 -30 -55 -43 hvcurveto
            168 32 54 68 91 hhcurveto
            63 24 -30 -54 3 hvcurveto
            -133 -182 rmoveto
            81 29 -51 -75 -13 hvcurveto
            -75 -13 -53 -47 -73 hhcurveto
            -82 -36 49 78 14 hvcurveto
            83 14 66 38 66 hhcurveto
            endchar
          </CharString>
          <CharString index="130">
            -18 -110 79 -45 82 -4 rrcurveto
            59 hlineto
            70 31 -32 -50 -8 hvcurveto
            -40 -7 -33 -33 -61 hhcurveto
            return
          </CharString>
          <CharString index="131">
            535 callgsubr
            -56 -48 509 callgsubr
            -6 -19 -5 -19 -3 -18 return
          </CharString>
          <CharString index="132">
            -152 -28 40 callgsubr
            return
          </CharString>
          <CharString index="133">
            18 104 rlineto
            -21 hlineto
            -72 -21 36 60 11 hvcurveto
            14 79 rlineto
            return
          </CharString>
          <CharString index="134">
            487 554 rmoveto
            -402 hlineto
            -20 -115 rlineto
            241 hlineto
            -299 -326 -20 -113 rlineto
            405 hlineto
            21 115 rlineto
            -246 hlineto
            301 326 rlineto
            return
          </CharString>
          <CharString index="135">
            rmoveto
            -46 -33 31 53 478 callgsubr
            214 callgsubr
            -36 -41 -55 hhcurveto
            return
          </CharString>
          <CharString index="136">
            21 -21 57 111 119.5 106.5 -33 104 167 108 -100 109 return
          </CharString>
          <CharString index="137">
            hhcurveto
            487 431 rmoveto
            -104 callgsubr
            return
          </CharString>
          <CharString index="138">
            29 callsubr
            300 callsubr
            hintmask 11011001
            246 465 rmoveto
            22 callgsubr
            hintmask 11101010
            302 callgsubr
            hintmask 11101001
            41 callgsubr
            129 hlineto
            112 632 rlineto
            return
          </CharString>
          <CharString index="139">
            -169 -30 108 -84 145 hhcurveto
            33 hlineto
            18 101 rlineto
            -19 hlineto
            -99 553 callsubr
            64 47 96 hhcurveto
            104 22 -66 -43 -8 hvcurveto
            -10 -59 rlineto
            return
          </CharString>
          <CharString index="140">
            -17 -96 53 -56 60 -17 -1 -4 rcurveline
            return
          </CharString>
          <CharString index="141">
            -44 471 callsubr
            49 12 40 hhcurveto
            182 hlineto
            17 93 rlineto
            -1 hlineto
            16 90 rlineto
            return
          </CharString>
          <CharString index="142">
            16 0 118 262 116 112 123 hstem
            452 136 vstem
            168 731 rmoveto
            -75 -428 rlineto
            135 hlineto
            45 22 43 32 58 hhcurveto
            79 33 -45 -82 -14 hvcurveto
            -77 -14 -47 -58 -83 hhcurveto
            -67 -35 37 51 -2 hvcurveto
            -137 hlineto
            -119 -9 75 -87 156 hhcurveto
            166 105 106 149 26 hvcurveto
            113 21 -36 128 -170 hhcurveto
            -61 -59 -26 -33 -32 hvcurveto
            30 171 rlineto
            324 hlineto
            21 123 rlineto
            endchar
          </CharString>
          <CharString index="143">
            -82 callgsubr
            -37 callsubr
            return
          </CharString>
          <CharString index="144">
            66 11 57 483 callgsubr
            149 hlineto
            -44 -31 -30 -47 -10 -55 rrcurveto
            return
          </CharString>
          <CharString index="145">
            -69 49 95 9 566 callgsubr
            8 hhcurveto
            167 387 callgsubr
            24 hvcurveto
            return
          </CharString>
          <CharString index="146">
            -10 -10 112 -102 102 -102 326 -86 86 128 114 return
          </CharString>
          <CharString index="147">
            18 2 130 465 130 hstem
            54 138 288 138 vstem
            66 365 rmoveto
            -204 -36 36 -159 206 hhcurveto
            206 92 159 204 36 hvcurveto
            204 36 -36 158 -206 hhcurveto
            -206 -91 -158 -204 -37 hvcurveto
            402 hmoveto
            -121 -22 -33 -112 -118 hhcurveto
            -118 6 112 194 callgsubr
            121 21 34 111 118 hhcurveto
            118 -6 -111 -121 -21 hvcurveto
            endchar
          </CharString>
          <CharString index="148">
            hlineto
            -20 -56 callgsubr
            400 hlineto
            -15 -85 rlineto
            -27 hlineto
            -165 -142 -89 -175 -32 hvcurveto
            return
          </CharString>
          <CharString index="149">
            hhcurveto
            -49 hlineto
            -13 54 callsubr
            -47 hlineto
            -14 -81 rlineto
            49 hlineto
            106 8 -3 -75 95 hvcurveto
            -120 81 callgsubr
            return
          </CharString>
          <CharString index="150">
            -40 -18 44 -56 hhcurveto
            531 callsubr
          </CharString>
          <CharString index="151">
            31 callgsubr
            213 -184 rlineto
            -41 -20 -40 -40 -68 hhcurveto
            return
          </CharString>
          <CharString index="152">
            546 699 rmoveto
            -405 283 callgsubr
            return
          </CharString>
          <CharString index="153">
            rmoveto
            75 hlineto
            30 10 18 14 23 hhcurveto
            return
          </CharString>
          <CharString index="154">
            49 -21 -47 33 -79 hhcurveto
            return
          </CharString>
          <CharString index="155">
            -3 hlineto
            80 -28 -64 43 -89 hhcurveto
            -126 -114 -90 -142 -25 hvcurveto
            -139 -25 87 -90 127 hhcurveto
            return
          </CharString>
          <CharString index="156">
            hhcurveto
            75 61 31 50 42 hvcurveto
            return
          </CharString>
          <CharString index="157">
            91 callgsubr
            -100 104 -15 109 -109 566 -309 104 -104 111 -111 -13 callsubr
            1301 134 return
          </CharString>
          <CharString index="158">
            rmoveto
            -83 -39 57 93 16 hvcurveto
            21 return
          </CharString>
          <CharString index="159">
            44 callsubr
            444 267 rmoveto
            -115 -96 -38 -74 -61 hvcurveto
            -241 202 rlineto
            1 534 vlineto
            -16 -91 rlineto
            return
          </CharString>
          <CharString index="160">
            254 callsubr
            126 110 75 131 23 hvcurveto
            128 22 -78 76 -131 379 callsubr
            return
          </CharString>
          <CharString index="161">
            -82 rlineto
            51 hlineto
            77 43 -4 -141 56 hvcurveto
            65 -71 -28 1 -96 hhcurveto
            return
          </CharString>
          <CharString index="162">
            rmoveto
            -79 -46 52 81 13 hvcurveto
            return
          </CharString>
          <CharString index="163">
            rmoveto
            183 callsubr
            366 callsubr
            309 490 callgsubr
            hintmask 11000111
            75 callsubr
            hintmask 10010111
            -20 callgsubr
            hintmask 10101111
            104 callsubr
            return
          </CharString>
          <CharString index="164">
            31 87 callgsubr
            -77 hlineto
            -68 -46 31 68 15 hvcurveto
            44 8 338 callgsubr
            18 -42 -53 -14 hvcurveto
            96 hlineto
            return
          </CharString>
          <CharString index="165">
            rmoveto
            40 7 -26 31 -40 hhcurveto
            -39 -37 -31 -40 -7 hvcurveto
            -38 -7 26 -32 39 hhcurveto
            40 37 32 38 7 hvcurveto
            79 254 rmoveto
            -104 callgsubr
            -727 -107 callgsubr
            365 hlineto
            return
          </CharString>
          <CharString index="166">
            201 rmoveto
            -106 -50 72 94 16 hvcurveto
            116 14 73 71 18 472 callgsubr
            -46 -260 rlineto
            1 vlineto
            138 callgsubr
            return
          </CharString>
          <CharString index="167">
            -93 callsubr
            363 558 callgsubr
            -96 -38 -107 -18 hvcurveto
            return
          </CharString>
          <CharString index="168">
            rmoveto
            -149 92 callgsubr
            return
          </CharString>
          <CharString index="169">
            535 rmoveto
            -73 -56 -32 -46 -36 hvcurveto
            31 175 rlineto
            388 hlineto
            -9 -54 -13 -71 -32 -45 -59 -19 rlinecurve
            54 -19 -45 38 -77 hhcurveto
            404 callsubr
            return
          </CharString>
          <CharString index="170">
            86 130 14 hvcurveto
            return
          </CharString>
          <CharString index="171">
            336 callgsubr
            101 -101 110 hstemhm
            return
          </CharString>
          <CharString index="172">
            hlineto
            -160 -139 -70 -174 -30 hvcurveto
            return
          </CharString>
          <CharString index="173">
            hintmask 11010000
            158 hmoveto
            52 296 rlineto
            91 23 53 28 78 hhcurveto
            37 hlineto
            hintmask 10110000
            26 147 rlineto
            -77 -65 -42 -64 -46 hvcurveto
            hintmask 11010000
            17 98 422 callgsubr
            return
          </CharString>
          <CharString index="174">
            110 1 callsubr
            return
          </CharString>
          <CharString index="175">
            796 177 callsubr
            -991 180 callgsubr
            return
          </CharString>
          <CharString index="176">
            64 54 40 91 30 hvcurveto
            -75 hlineto
            return
          </CharString>
          <CharString index="177">
            89 0 114 467 117 hstem
            553 145 vstem
            385 698 rmoveto
            -244 532 callgsubr
            244 hlineto
            224 169 137 211 37 hvcurveto
            212 38 -121 138 -223 hhcurveto
            -206 -584 rmoveto
            82 467 rlineto
            98 hlineto
            148 66 -88 -145 -25 hvcurveto
            -145 -26 -97 -89 -148 hhcurveto
            return
          </CharString>
          <CharString index="178">
            -142 -99 callsubr
            endchar
          </CharString>
          <CharString index="179">
            -28 -156 rlineto
            127 hlineto
            111 433 callgsubr
            -639 -93 callsubr
            403 hlineto
            -30 -168 rlineto
            51 -25 -53 31 -78 hhcurveto
            return
          </CharString>
          <CharString index="180">
            325 -76 callsubr
            return
          </CharString>
          <CharString index="181">
            139 hlineto
            58 325 rlineto
            153 27 -77 84 -130 hhcurveto
            -70 -65 -30 -46 -44 hvcurveto
            return
          </CharString>
          <CharString index="182">
            -75 -18 -65 -51 -17 -98 -6 -36 0 -34 5 -27 rrcurveto
            106 hlineto
            return
          </CharString>
          <CharString index="183">
            -79 -13 62 -32 72 hhcurveto
            32 32 6 9 28 hvcurveto
            return
          </CharString>
          <CharString index="184">
            109 -109 308 9 callsubr
            return
          </CharString>
          <CharString index="185">
            -154 -27 80 -109 150 hhcurveto
            return
          </CharString>
          <CharString index="186">
            -100 105 -25 109 157 111 -111 -92 callsubr
            78 127 hintmask 0001001011000000
            314 274 31 callgsubr
            214 -184 rlineto
            -41 -20 -41 -40 -68 hhcurveto
            549 358 rmoveto
            -60 callgsubr
            -86 return
          </CharString>
          <CharString index="187">
            hmoveto
            111 -51 callsubr
            return
          </CharString>
          <CharString index="188">
            89 callsubr
            -15 return
          </CharString>
          <CharString index="189">
            -166 -29 95 -103 173 hhcurveto
            return
          </CharString>
          <CharString index="190">
            37 hlineto
            58 45 -21 -60 -11 hvcurveto
            return
          </CharString>
          <CharString index="191">
            61 -30 -75 27 -100 hhcurveto
            -167 hlineto
            -127 -112 -60 -137 -24 hvcurveto
            -134 -23 93 -81 116 hhcurveto
            return
          </CharString>
          <CharString index="192">
            265 callgsubr
            -23 -117 84 -78 136 -25 -149 -143 rcurveline
            132 hlineto
            131 131 85 -131 rlineto
            132 hlineto
            -102 149 162 37 111 106 27 152 rlinecurve
            return
          </CharString>
          <CharString index="193">
            -119 -22 66 -75 121 hhcurveto
            133 67 88 112 20 hvcurveto
            30 179 rlineto
            return
          </CharString>
          <CharString index="194">
            705 95 rmoveto
            -108 -49 65 80 12 hvcurveto
            123 11 69 74 18 113 14 88 rcurveline
            167 140 callgsubr
            486 431 rmoveto
            -104 callgsubr
            -1464 hlineto
            -19 -64 callsubr
            return
          </CharString>
          <CharString index="195">
            -16 -91 rlineto
            -51 hlineto
            -151 -128 -73 -156 -28 hvcurveto
            return
          </CharString>
          <CharString index="196">
            31 41 181 callgsubr
            return
          </CharString>
          <CharString index="197">
            hlineto
            2 callgsubr
            return
          </CharString>
          <CharString index="198">
            82 197 callgsubr
            return
          </CharString>
          <CharString index="199">
            1486 -63 callgsubr
            -1460 -107 callgsubr
            1219 hlineto
            -24 -140 rlineto
            -270 -66 callsubr
            29 162 rlineto
            -394 -66 callsubr
            return
          </CharString>
          <CharString index="200">
            -124 475 callsubr
            return
          </CharString>
          <CharString index="201">
            97 callsubr
            468 562 rmoveto
            return
          </CharString>
          <CharString index="202">
            88 0 242 408 callgsubr
            457 -20 return
          </CharString>
          <CharString index="203">
            358 108 hstem
            78 127 vstem
            313 274 rmoveto
            -83 -38 61 89 431 callgsubr
            -48 -26 -47 -33 -64 hhcurveto
            162 167 rmoveto
            -228 191 rlineto
            262 hlineto
            237 hmoveto
            -58 callgsubr
            -722 -67 callsubr
            return
          </CharString>
          <CharString index="204">
            -61 -14 -55 -65 -86 hhcurveto
            return
          </CharString>
          <CharString index="205">
            -76 -14 -56 -44 -62 hhcurveto
            -12 222 callsubr
            -17 -102 rlineto
            -5 20 459 callgsubr
            -68 102 -124 hhcurveto
            -73 -56 -33 -48 -36 hvcurveto
            30 171 rlineto
            440 -22 callsubr
            -937 -93 callsubr
            374 hlineto
            return
          </CharString>
          <CharString index="206">
            51 9 45 57 callsubr
            return
          </CharString>
          <CharString index="207">
            -358 139 callsubr
            -41 -20 -43 -39 -66 hhcurveto
            return
          </CharString>
          <CharString index="208">
            74 12 59 49 70 hhcurveto
            70 40 -51 -71 -12 hvcurveto
            -70 -13 -57 -49 -70 hhcurveto
            return
          </CharString>
          <CharString index="209">
            hlineto
            4 callsubr
            -75 hlineto
            -118 -107 -63 -128 -21 hvcurveto
            return
          </CharString>
          <CharString index="210">
            79.5 -79.5 82.5 return
          </CharString>
          <CharString index="211">
            -131 -24 -113 -73 -162 hhcurveto
            return
          </CharString>
          <CharString index="212">
            127 21 -82 71 -109 hhcurveto
            -102 -66 -61 -66 -34 hvcurveto
            -3 hlineto
            63 -11 -44 64 -99 hhcurveto
            -119 -110 -73 -158 -27 hvcurveto
            -143 -25 70 -113 164 hhcurveto
            8 11 184 callgsubr
            21 113 rlineto
            -1 -10 -8 -1 -8 hhcurveto
            -84 -35 57 79 13 hvcurveto
            return
          </CharString>
          <CharString index="213">
            -3 -25 rlineto
            -55 -10 -34 -38 -51 hhcurveto
            -56 -21 43 57 11 hvcurveto
            20 113 rlineto
            22 hlineto
            172 81 102 147 27 hvcurveto
            12 69 rlineto
            return
          </CharString>
          <CharString index="214">
            -93 callsubr
            170 hlineto
            -37 -210 -25 -128 50 -95 114 -16 rlinecurve
            hintmask 10001011
            -220 -204 258 callgsubr
            248 246 7 6 6 489 callgsubr
            hintmask 01000101
            -42 -243 rlineto
            129 hlineto
            54 308 rlineto
            67 19 47 56 77 hhcurveto
            return
          </CharString>
          <CharString index="215">
            -77 callsubr
            167 callsubr
            178 hlineto
            33 183 rlineto
            endchar
          </CharString>
          <CharString index="216">
            rmoveto
            119 callgsubr
            return
          </CharString>
          <CharString index="217">
            -66 hlineto
            -43 -12 16 37 6 hvcurveto
            47 268 rlineto
            124 hlineto
            20 115 rlineto
            -123 hlineto
            return
          </CharString>
          <CharString index="218">
            rlineto
            -114 129 callgsubr
            return
          </CharString>
          <CharString index="219">
            12 68 422 callgsubr
            141 hlineto
            55 313 rlineto
            return
          </CharString>
          <CharString index="220">
            rmoveto
            16 87 rlineto
            133 -22 callsubr
            return
          </CharString>
          <CharString index="221">
            -90 64 -53 94 85 82 39 50 37 vhcurveto
            return
          </CharString>
          <CharString index="222">
            -16 -91 rlineto
            -5 hlineto
            -175 -131 -88 -166 -29 hvcurveto
            return
          </CharString>
          <CharString index="223">
            130 24 -36 99 -143 hhcurveto
            return
          </CharString>
          <CharString index="224">
            96 103 282 callgsubr
            return
          </CharString>
          <CharString index="225">
            100 callgsubr
            72 14 223 callgsubr
            return
          </CharString>
          <CharString index="226">
            110 163 callsubr
            return
          </CharString>
          <CharString index="227">
            45 callgsubr
            -378 hlineto
            -128 -113 -61 -136 -23 hvcurveto
            -128 -23 88 -86 118 hhcurveto
            114 98 66 123 22 hvcurveto
            8 48 -8 39 -16 29 rrcurveto
            132 hlineto
            return
          </CharString>
          <CharString index="228">
            hhcurveto
            -101 -63 -60 -65 -33 -98 callsubr
            return
          </CharString>
          <CharString index="229">
            hlineto
            -7 -16 -5 -17 -3 -18 33 callsubr
            return
          </CharString>
          <CharString index="230">
            74 callsubr
            hintmask 11010000
            112 callsubr
            hintmask 10110000
            85 18 271 callgsubr
            return
          </CharString>
          <CharString index="231">
            224 116 callgsubr
            41 89 callgsubr
            return
          </CharString>
          <CharString index="232">
            -38 callgsubr
            endchar
          </CharString>
          <CharString index="233">
            423 callsubr
            129 return
          </CharString>
          <CharString index="234">
            67 38 -50 -71 -13 hvcurveto
            return
          </CharString>
          <CharString index="235">
            556 callsubr
            11 hvcurveto
            48 8 39 37 577 callsubr
            -23 37 60 10 hvcurveto
            9 52 rlineto
            269 hlineto
            -49 -279 rlineto
            -88 -16 -82 -61 -91 hhcurveto
            477 428 rmoveto
            -58 callgsubr
            return
          </CharString>
          <CharString index="236">
            -67 -46 29 61 10 hvcurveto
            48 9 39 37 77 hhcurveto
            52 hlineto
            19 104 rlineto
            -44 hlineto
            -77 -23 37 60 10 hvcurveto
            9 52 rlineto
            return
          </CharString>
          <CharString index="237">
            rmoveto
            207 callsubr
            30 callgsubr
            return
          </CharString>
          <CharString index="238">
            53 9 46 44 80 hhcurveto
            19 hlineto
            return
          </CharString>
          <CharString index="239">
            -28 -159 rlineto
            45 -28 -53 34 -79 hhcurveto
            return
          </CharString>
          <CharString index="240">
            600 -63 callgsubr
            -574 238 callsubr
            -92 -17 -52 -52 -110 hhcurveto
            -102 hlineto
            -38 -212 rlineto
            -123 -23 67 -93 139 hhcurveto
            128 81 82 125 21 hvcurveto
            return
          </CharString>
          <CharString index="241">
            301 callsubr
            237 callsubr
            return
          </CharString>
          <CharString index="242">
            rmoveto
            -30 callgsubr
            return
          </CharString>
          <CharString index="243">
            216 0 132 -132 133 -112 438 callgsubr
            return
          </CharString>
          <CharString index="244">
            150 callsubr
            47 callgsubr
            return
          </CharString>
          <CharString index="245">
            95 callsubr
            hstemhm
            -26 665 return
          </CharString>
          <CharString index="246">
            31 callgsubr
            214 -185 rlineto
            return
          </CharString>
          <CharString index="247">
            106 165 callgsubr
            return
          </CharString>
          <CharString index="248">
            157 -7 129 457 129 return
          </CharString>
          <CharString index="249">
            338 callsubr
            -312 hlineto
            return
          </CharString>
          <CharString index="250">
            306 236 callgsubr
            -1027 -1 callsubr
            rlineto
            return
          </CharString>
          <CharString index="251">
            rmoveto
            -110 hlineto
            hintmask 1110101001000000
            -53 -10 -43 -48 -80 hhcurveto
            hintmask 1110100101000000
            -82 -25 48 53 10 hvcurveto
            -111 hlineto
            hintmask 1110101001000000
            -110 -20 60 -87 157 hhcurveto
            hintmask 1101010101000000
            157 78 87 110 19 hvcurveto
            endchar
          </CharString>
          <CharString index="252">
            -1 callsubr
            -25 -128 49 -95 114 -16 rlinecurve
            -220 -204 128 callgsubr
            251 249 6 5 5 4 4 5 rlinecurve
            548 callgsubr
            return
          </CharString>
          <CharString index="253">
            113 98 69 120 20 hvcurveto
            8 48 -8 38 -15 29 rrcurveto
            29 hlineto
            84 27 -38 -46 -7 hvcurveto
            -16 -92 rlineto
            return
          </CharString>
          <CharString index="254">
            -153 -11 87 -103 152 hhcurveto
            91 70 418 callsubr
            131 -102 callgsubr
            return
          </CharString>
          <CharString index="255">
            108 -100 105 109 109 23 332 callgsubr
            -240 -14 callgsubr
            21 133 return
          </CharString>
          <CharString index="256">
            346 callsubr
            -128 -98 -77 -122 -31 hvcurveto
            return
          </CharString>
          <CharString index="257">
            -45 -8 -43 -32 -63 hhcurveto
            return
          </CharString>
          <CharString index="258">
            hlineto
            -13 -76 rlineto
            return
          </CharString>
          <CharString index="259">
            169 callsubr
            143 hlineto
            return
          </CharString>
          <CharString index="260">
            rmoveto
            186 hlineto
            -104 -588 128 callgsubr
            104 588 rlineto
            185 hlineto
            20 110 rlineto
            -512 hlineto
            return
          </CharString>
          <CharString index="261">
            -50 callgsubr
            hstemhm
            45 132 return
          </CharString>
          <CharString index="262">
            97 -91 91 120 537 callsubr
            hstemhm
            374 119 return
          </CharString>
          <CharString index="263">
            -104 -29 -67 -51 -112 195 callgsubr
            return
          </CharString>
          <CharString index="264">
            298 118 hstem
            72 446 vstem
            72 298 rmoveto
            425 hlineto
            21 118 rlineto
            -425 hlineto
            endchar
          </CharString>
          <CharString index="265">
            55 81 14 hvcurveto
            return
          </CharString>
          <CharString index="266">
            430 23 rmoveto
            -105 -52 58 83 13 hvcurveto
            123 10 67 74 20 118 16 88 521 callsubr
            -82 -71 -104 hhcurveto
            489 431 rmoveto
            -104 callgsubr
            return
          </CharString>
          <CharString index="267">
            -240 -18 44 callsubr
            384 358 rmoveto
            -16 -93 -77 -12 -71 -37 -49 -60 rlinecurve
            -240 201 rlineto
            1 vlineto
            return
          </CharString>
          <CharString index="268">
            -46 callsubr
            -60 callsubr
            return
          </CharString>
          <CharString index="269">
            107 callgsubr
            75 13 62 48 68 hhcurveto
            return
          </CharString>
          <CharString index="270">
            -82 callgsubr
            111 1 callsubr
            return
          </CharString>
          <CharString index="271">
            231 callgsubr
            89 -214 rlineto
            return
          </CharString>
          <CharString index="272">
            315 callsubr
            -268 rlineto
            return
          </CharString>
          <CharString index="273">
            -109 rlineto
            58 hlineto
            -3 -18 rlineto
            -42 return
          </CharString>
          <CharString index="274">
            48 9 47 12 42 hhcurveto
            return
          </CharString>
          <CharString index="275">
            -139 -24 hvcurveto
            return
          </CharString>
          <CharString index="276">
            -78 callsubr
            138 hlineto
            -9 -51 rlineto
            -78 callsubr
            return
          </CharString>
          <CharString index="277">
            53 71 hhcurveto
            74 return
          </CharString>
          <CharString index="278">
            23 7 14 14 22 hhcurveto
            20 12 -15 -25 -4 hvcurveto
            -6 -31 -27 -26 -43 -27 -128 -77 rcurveline
            -15 -80 rlineto
            288 hlineto
            15 85 rlineto
            -172 hlineto
            75 39 81 42 38 32 9 50 rlinecurve
            return
          </CharString>
          <CharString index="279">
            -660 -72 541 callsubr
            84 64 23 140 rlinecurve
            19 110 rlineto
            756 95 callgsubr
            -71 -62 -28 -50 -45 hvcurveto
            return
          </CharString>
          <CharString index="280">
            -25 -14 12 26 1 hvcurveto
            -109 hlineto
            -71 -8 46 -45 100 hhcurveto
            91 69 42 58 10 hvcurveto
            7 42 -23 27 -39 12 1 3 rcurveline
            39 9 32 25 7 42 rrcurveto
            59 10 -53 46 -85 hhcurveto
            return
          </CharString>
          <CharString index="281">
            223 214 17 14 15 17 14 17 rlinecurve
            -2 10 11 -1 12 hhcurveto
            62 46 24 35 32 hvcurveto
            return
          </CharString>
          <CharString index="282">
            558 callgsubr
            -94 -39 -110 -18 hvcurveto
            -19 -105 78 -46 82 -4 rrcurveto
            58 hlineto
            58 return
          </CharString>
          <CharString index="283">
            13 callsubr
            311 rlineto
            61 15 45 59 71 hhcurveto
            51 31 -28 -42 8 hvcurveto
            return
          </CharString>
          <CharString index="284">
            hmoveto
            110 36 callgsubr
            return
          </CharString>
          <CharString index="285">
            396 20 -21 22 477 callgsubr
            94 980 return
          </CharString>
          <CharString index="286">
            395 callsubr
            17 -42 -53 -14 hvcurveto
            96 hlineto
            return
          </CharString>
          <CharString index="287">
            10 -9 120 332 120 return
          </CharString>
          <CharString index="288">
            -42 -58 hhcurveto
            -60 -35 40 57 return
          </CharString>
          <CharString index="289">
            131 152 105 161 return
          </CharString>
          <CharString index="290">
            -132 -64 44 79 14 hvcurveto
            return
          </CharString>
          <CharString index="291">
            -91 -78 -58 -102 -18 hvcurveto
            172 76 rmoveto
            34 18 -23 -53 -9 hvcurveto
            -53 -10 -26 -24 -34 hhcurveto
            -35 -17 24 53 9 hvcurveto
            53 10 25 23 35 hhcurveto
            -188 -626 rmoveto
            137 hlineto
            return
          </CharString>
          <CharString index="292">
            -126 -23 68 -90 141 hhcurveto
            129 85 88 123 23 hvcurveto
            return
          </CharString>
          <CharString index="293">
            292 9 callsubr
            110 182 callsubr
            return
          </CharString>
          <CharString index="294">
            -69 callsubr
            130 hlineto
            return
          </CharString>
          <CharString index="295">
            439 callgsubr
            108 return
          </CharString>
          <CharString index="296">
            -29 -165 rlineto
            return
          </CharString>
          <CharString index="297">
            521 callgsubr
            -74 -13 -53 -47 -65 hhcurveto
            -12 -13 2 3 -11 hvcurveto
            -17 -100 rlineto
            -6 20 24 -3 24 hhcurveto
            120 103 85 147 26 hvcurveto
            return
          </CharString>
          <CharString index="298">
            -80 21 -21 605 119 hstem
            46 547 vstem
            111 724 rmoveto
            -20 -119 rlineto
            342 hlineto
            -387 -605 rlineto
            150 hlineto
            379 620 18 104 rlineto
            endchar
          </CharString>
          <CharString index="299">
            -78 callsubr
            143 hlineto
            return
          </CharString>
          <CharString index="300">
            68 194 callgsubr
            return
          </CharString>
          <CharString index="301">
            248 callsubr
            -1305 -107 callgsubr
            546 hlineto
            -15 -84 -15 -89 38 -42 55 -12 rlinecurve
            -3 vlineto
            return
          </CharString>
          <CharString index="302">
            -101 147 81 25 49 56 14 76 rlinecurve
            294 callsubr
            endchar
          </CharString>
          <CharString index="303">
            85 -130 rlineto
            126 hlineto
            -123 179 rlineto
            -172 hlineto
            -185 -179 rlineto
            endchar
          </CharString>
          <CharString index="304">
            142 25 -88 90 -126 262 callsubr
            return
          </CharString>
          <CharString index="305">
            rmoveto
            -107 -45 59 85 3 hvcurveto
            126 12 70 93 20 105 229 callsubr
            -101 30 callsubr
            return
          </CharString>
          <CharString index="306">
            -60 -65 -34 hvcurveto
            -2 hlineto
            -83 callgsubr
            return
          </CharString>
          <CharString index="307">
            50 -273 122 142 123 475 callgsubr
            return
          </CharString>
          <CharString index="308">
            492 -380 113 157 110 476 callgsubr
            return
          </CharString>
          <CharString index="309">
            -56 -11 hvcurveto
            -56 555 callsubr
            148 callgsubr
            return
          </CharString>
          <CharString index="310">
            -9 -54 -15 -82 -41 -47 -78 -14 rlinecurve
            41 -31 -56 30 -93 hhcurveto
            return
          </CharString>
          <CharString index="311">
            -2 10 11 -1 11 hhcurveto
            62 46 24 35 32 hvcurveto
            return
          </CharString>
          <CharString index="312">
            111 36 callgsubr
            return
          </CharString>
          <CharString index="313">
            64 29 -39 -36 2 hvcurveto
            124 hlineto
            return
          </CharString>
          <CharString index="314">
            155 134 92 156 27 hvcurveto
            return
          </CharString>
          <CharString index="315">
            47 143 427 142 return
          </CharString>
          <CharString index="316">
            69 133 rlineto
            279 hlineto
            return
          </CharString>
          <CharString index="317">
            69 -7 128 577 -20 return
          </CharString>
          <CharString index="318">
            -25 callgsubr
            78 131 return
          </CharString>
          <CharString index="319">
            rmoveto
            -78 -46 52 81 13 hvcurveto
            77 14 68 54 77 hhcurveto
            69 39 -43 -50 4 hvcurveto
            -1 -10 -1 -10 -1 -10 rrcurveto
            -2 0 -3 -1 -2 vhcurveto
            -68 -14 -54 -66 -88 hhcurveto
            return
          </CharString>
          <CharString index="320">
            252 rlineto
            -147 hlineto
            -102 -252 rlineto
            return
          </CharString>
          <CharString index="321">
            466 284 callgsubr
            return
          </CharString>
          <CharString index="322">
            -27 callsubr
            53 return
          </CharString>
          <CharString index="323">
            -108 211 callsubr
            return
          </CharString>
          <CharString index="324">
            288 callgsubr
            -22 -126 59 -94 104 -42 rrcurveto
            return
          </CharString>
          <CharString index="325">
            21 8 15 12 25 hhcurveto
            27 12 -14 -22 -4 hvcurveto
            -26 -4 -21 -12 -29 hhcurveto
            -30 hlineto
            -10 -57 rlineto
            35 hlineto
            29 16 -14 -25 -5 hvcurveto
            -25 -4 -21 -14 -24 hhcurveto
            return
          </CharString>
          <CharString index="326">
            -28 -159 rlineto
            -87 185 rmoveto
            -70 -44 107 callgsubr
            75 12 63 48 67 hhcurveto
            83 27 -63 -61 -11 hvcurveto
            1 1 -2 -11 -14 -53 -47 -59 -79 -1 rlinecurve
            return
          </CharString>
          <CharString index="327">
            123 callgsubr
            -41 -56 -10 hvcurveto
            -55 -11 -47 -43 -58 hhcurveto
            -61 -34 41 56 10 hvcurveto
            return
          </CharString>
          <CharString index="328">
            -107 callgsubr
            109 hlineto
            -63 -361 rlineto
            -149 -26 74 -103 168 hhcurveto
            return
          </CharString>
          <CharString index="329">
            -12 1 3 -8 hvcurveto
            return
          </CharString>
          <CharString index="330">
            46 31 56 hhcurveto
            return
          </CharString>
          <CharString index="331">
            rmoveto
            10 9 10 10 8 10 -33 -187 rcurveline
            129 hlineto
            368 callgsubr
            return
          </CharString>
          <CharString index="332">
            -159 -138 rlineto
            136 hlineto
            138 526 rmoveto
            99 41 -74 -78 -13 hvcurveto
            -4 -25 -11 -26 -16 -23 539 callgsubr
            rcurveline
            22 31 38 13 39 hhcurveto
            return
          </CharString>
          <CharString index="333">
            85 -130 556 callgsubr
            109 23 70 69 17 95 rlinecurve
            413 callsubr
            return
          </CharString>
          <CharString index="334">
            rmoveto
            -104 callgsubr
            -688 hlineto
            -20 -56 callgsubr
            374 311 callgsubr
            -19 -114 51 -86 93 -38 return
          </CharString>
          <CharString index="335">
            312 callgsubr
            88 callsubr
            -22 -129 61 -81 91 -19 return
          </CharString>
          <CharString index="336">
            14 77 rcurveline
            382 callsubr
            -78 -66 return
          </CharString>
          <CharString index="337">
            -21 108 -34 77 hhcurveto
            83 callsubr
            return
          </CharString>
          <CharString index="338">
            -25 callgsubr
            38 424 return
          </CharString>
          <CharString index="339">
            hlineto
            -9 -54 rlineto
            return
          </CharString>
          <CharString index="340">
            886 632 265 callgsubr
            return
          </CharString>
          <CharString index="341">
            -78 callgsubr
            138 hlineto
            -39 -33 -30 -49 -12 -68 rrcurveto
            -146 -26 102 -88 146 hhcurveto
            35 hlineto
            18 101 rlineto
            -18 hlineto
            -97 -43 53 83 14 hvcurveto
            return
          </CharString>
          <CharString index="342">
            -21 44 113 -45 113 29 486 -358 110 -74 -6 callgsubr
            9 callsubr
            38 131 214 103 -103 448 return
          </CharString>
          <CharString index="343">
            -154 -137 rlineto
            415 callgsubr
            8 8 8 7 8 rlinecurve
            return
          </CharString>
          <CharString index="344">
            -298 18 callsubr
            return
          </CharString>
          <CharString index="345">
            -107 callgsubr
            346 hlineto
            -12 -69 rlineto
            return
          </CharString>
          <CharString index="346">
            369 callgsubr
            -139 hlineto
            return
          </CharString>
          <CharString index="347">
            hlineto
            -119 -106 -63 -128 return
          </CharString>
          <CharString index="348">
            21 325 callgsubr
            return
          </CharString>
          <CharString index="349">
            -266 21 -21 580 130 hstem
            81 270 vstem
            81 hmoveto
            144 hlineto
            126 710 rlineto
            -240 hlineto
            -24 -130 rlineto
            96 hlineto
            endchar
          </CharString>
          <CharString index="350">
            303 114 -36 callsubr
            endchar
          </CharString>
          <CharString index="351">
            rmoveto
            -74 callsubr
            670 364 rmoveto
            -104 callgsubr
            return
          </CharString>
          <CharString index="352">
            552 -22 callgsubr
            return
          </CharString>
          <CharString index="353">
            -80 callgsubr
            -1401 -107 callgsubr
            return
          </CharString>
          <CharString index="354">
            119 21 -67 119 -177 hhcurveto
            -160 -117 -96 -137 -24 hvcurveto
            return
          </CharString>
          <CharString index="355">
            104 callsubr
            529 499 rmoveto
            -104 callgsubr
            return
          </CharString>
          <CharString index="356">
            -45 -56 472 callsubr
            20 116 rlineto
            return
          </CharString>
          <CharString index="357">
            vstem
            -49 callsubr
            return
          </CharString>
          <CharString index="358">
            -154 -29 82 -109 150 hhcurveto
            return
          </CharString>
          <CharString index="359">
            -39 86 hhcurveto
            74 62 31 50 41 hvcurveto
            return
          </CharString>
          <CharString index="360">
            113 20 -81 63 -108 hhcurveto
            return
          </CharString>
          <CharString index="361">
            -4 17 19 -2 20 hhcurveto
            return
          </CharString>
          <CharString index="362">
            111 438 callsubr
            return
          </CharString>
          <CharString index="363">
            0 178 -103 103 return
          </CharString>
          <CharString index="364">
            rmoveto
            14 76 rlineto
            return
          </CharString>
          <CharString index="365">
            357 -43 rmoveto
            325 300 23 132 -491 -432 rlineto
            534 675 rmoveto
            -104 callgsubr
            -721 -107 callgsubr
            return
          </CharString>
          <CharString index="366">
            1333 -63 callgsubr
            -1311 -93 callsubr
            1057 hlineto
            -16 -91 rlineto
            -51 hlineto
            -87 -80 -24 -51 -57 hvcurveto
            return
          </CharString>
          <CharString index="367">
            -343 -738 rmoveto
            -70 -1 -46 45 13 71 4 22 8 19 13 16 174 -131 rcurveline
            -24 -26 -33 -17 -37 hhcurveto
            37 227 rmoveto
            return
          </CharString>
          <CharString index="368">
            -31 14 -144 hhcurveto
            -49 hlineto
            -14 -82 rlineto
            52 hlineto
            76 43 -4 -141 56 hvcurveto
            65 -71 -27 1 -97 hhcurveto
            -47 hlineto
            -14 -81 rlineto
            50 hlineto
            return
          </CharString>
          <CharString index="369">
            hhcurveto
            -90 -76 -43 -80 -52 hvcurveto
            48 callsubr
            return
          </CharString>
          <CharString index="370">
            36 200 rlineto
            endchar
          </CharString>
          <CharString index="371">
            -127 -93 -73 -109 -18 hvcurveto
            -16 -88 39 -67 74 -54 -233 -159 rcurveline
            -2 -15 rlineto
            147 hlineto
            176 120 120 return
          </CharString>
          <CharString index="372">
            283 -198 104 -15 566 -309 104 -104 32 callgsubr
            78 131 1279 134 return
          </CharString>
          <CharString index="373">
            678 hmoveto
            296 callsubr
            return
          </CharString>
          <CharString index="374">
            hhcurveto
            167 118 105 157 27 364 callgsubr
            -88 -15 -68 -62 -92 hhcurveto
            -90 -52 59 84 15 hvcurveto
            127 callgsubr
            return
          </CharString>
          <CharString index="375">
            83 -2 -76 63 -115 hhcurveto
            -16 -16 -1 -2 -15 hvcurveto
            -25 10 -13 20 6 28 rrcurveto
            45 9 38 15 41 hhcurveto
            178 hlineto
            endchar
          </CharString>
          <CharString index="376">
            -8 callgsubr
            93 callsubr
            return
          </CharString>
          <CharString index="377">
            -20 -44 -52 hhcurveto
            -49 -9 40 43 8 hvcurveto
            return
          </CharString>
          <CharString index="378">
            hhcurveto
            80 65 33 48 40 hvcurveto
            return
          </CharString>
          <CharString index="379">
            25 145 292 145 return
          </CharString>
          <CharString index="380">
            -338 21 438 callgsubr
            return
          </CharString>
          <CharString index="381">
            394 callsubr
            -63 return
          </CharString>
          <CharString index="382">
            rlineto
            -140 hlineto
            return
          </CharString>
          <CharString index="383">
            -353 446 252 hstem
            82 249 vstem
            179 446 rmoveto
            152 213 callsubr
            endchar
          </CharString>
          <CharString index="384">
            161 69 201 108 hstem
            55 129 vstem
            return
          </CharString>
          <CharString index="385">
            -102 -17 -61 -36 -84 hhcurveto
            -29 hlineto
            -24 -137 rlineto
            return
          </CharString>
          <CharString index="386">
            14 77 rcurveline
            167 hlineto
            -46 -259 rlineto
            -101 -17 return
          </CharString>
          <CharString index="387">
            489 callsubr
            116 callsubr
            return
          </CharString>
          <CharString index="388">
            -87 -50 63 85 15 hvcurveto
            return
          </CharString>
          <CharString index="389">
            -38 -6 25 -31 39 hhcurveto
            return
          </CharString>
          <CharString index="390">
            -9 110 -101 207 return
          </CharString>
          <CharString index="391">
            486 -322 return
          </CharString>
          <CharString index="392">
            rmoveto
            -62 -1 -38 42 10 60 9 57 49 41 58 5 55 5 43 20 31 31 -30 -167 rcurveline
            -49 -15 -47 -44 -63 hhcurveto
            return
          </CharString>
          <CharString index="393">
            -64 -12 -38 -41 -54 hhcurveto
            666 407 rmoveto
            -104 callgsubr
            -1613 -1 callsubr
            rlineto
            return
          </CharString>
          <CharString index="394">
            -64 callsubr
            82 callsubr
            return
          </CharString>
          <CharString index="395">
            278 callgsubr
            -351 -107 callgsubr
            110 hlineto
            -111 -632 rlineto
            endchar
          </CharString>
          <CharString index="396">
            98 158 91 120 91 92 108 hstem
            372 126 vstem
            return
          </CharString>
          <CharString index="397">
            -61 -44 38 66 4 hvcurveto
            -120 hlineto
            -49 -282 rlineto
            125 hlineto
            return
          </CharString>
          <CharString index="398">
            -69 36 73 -40 100 hhcurveto
            89 462 callgsubr
            return
          </CharString>
          <CharString index="399">
            -67 -33 38 57 5 hvcurveto
            -116 hlineto
            -45 -256 rlineto
            122 hlineto
            return
          </CharString>
          <CharString index="400">
            73 10 46 70 72 hhcurveto
            66 22 -47 -72 -10 hvcurveto
            -113 -13 65 -74 138 hhcurveto
            134 87 89 126 22 hvcurveto
            return
          </CharString>
          <CharString index="401">
            -31 callsubr
            357 callsubr
            return
          </CharString>
          <CharString index="402">
            -100 callsubr
            -19 callsubr
            return
          </CharString>
          <CharString index="403">
            2 callgsubr
            179 hlineto
            -111 -632 rlineto
            129 hlineto
            278 callgsubr
            return
          </CharString>
          <CharString index="404">
            rmoveto
            -77 313 callgsubr
            86 33 -62 -64 -8 hvcurveto
            -2 -13 rlineto
            -60 -15 -53 -65 -88 hhcurveto
            return
          </CharString>
          <CharString index="405">
            -142 -181 1128 hstem
            -46 606 vstem
            -46 -181 rmoveto
            136 hlineto
            470 1128 rlineto
            -137 hlineto
            endchar
          </CharString>
          <CharString index="406">
            124 36 -59 79 -121 hhcurveto
            return
          </CharString>
          <CharString index="407">
            hstemhm
            41 440 -117 117 return
          </CharString>
          <CharString index="408">
            -308 15 callgsubr
            return
          </CharString>
          <CharString index="409">
            70 19 113 return
          </CharString>
          <CharString index="410">
            404 callgsubr
            291 callgsubr
            return
          </CharString>
          <CharString index="411">
            238 callsubr
            -88 -15 -53 -53 -110 hhcurveto
            -103 hlineto
            -38 -215 rlineto
            -124 -22 return
          </CharString>
          <CharString index="412">
            228 -98 98 -77 -21 279 93 93 89 85 423 callsubr
            125 166 callgsubr
            return
          </CharString>
          <CharString index="413">
            rmoveto
            151 callgsubr
            46 8 -30 36 -49 hhcurveto
            -50 -43 -36 -46 -8 hvcurveto
            -46 -8 30 -36 50 hhcurveto
            endchar
          </CharString>
          <CharString index="414">
            rmoveto
            -46 -8 29 -36 50 hhcurveto
            50 43 36 46 8 hvcurveto
            46 8 -30 36 -50 hhcurveto
            -49 -43 -36 -46 -8 hvcurveto
            endchar
          </CharString>
          <CharString index="415">
            rmoveto
            126 hlineto
            -105 153 105 33 82 81 20 118 rlinecurve
            return
          </CharString>
          <CharString index="416">
            439 252 rmoveto
            -73 -58 -32 -46 -37 hvcurveto
            31 175 rlineto
            return
          </CharString>
          <CharString index="417">
            439 256 rmoveto
            -73 -57 -32 -46 -38 hvcurveto
            31 171 rlineto
            return
          </CharString>
          <CharString index="418">
            -89 -1 rrcurveto
            -68 -50 38 71 13 hvcurveto
            66 11 57 45 70 hhcurveto
            return
          </CharString>
          <CharString index="419">
            19 109 rlineto
            -57 563 callsubr
            42 7 20 20 34 hhcurveto
            return
          </CharString>
          <CharString index="420">
            215 callsubr
            303 rlineto
            return
          </CharString>
          <CharString index="421">
            -24 -140 rlineto
            -270 hlineto
            return
          </CharString>
          <CharString index="422">
            348 callsubr
            -47 return
          </CharString>
          <CharString index="423">
            436 callsubr
            57 hlineto
            return
          </CharString>
          <CharString index="424">
            53 299 rlineto
            -108 hlineto
            return
          </CharString>
          <CharString index="425">
            -133 -24 hvcurveto
            return
          </CharString>
          <CharString index="426">
            rmoveto
            7 6 6 7 6 6 -27 -152 rcurveline
            125 hlineto
            110 433 callgsubr
            return
          </CharString>
          <CharString index="427">
            49 callsubr
            hintmask 10010110
            -70 callgsubr
          </CharString>
          <CharString index="428">
            -119 hlineto
            -90 -15 -77 -65 -102 hhcurveto
            -101 -63 58 103 538 callgsubr
            10 66 302 callsubr
            13 77 rcurveline
            return
          </CharString>
          <CharString index="429">
            -472 -79 callsubr
            return
          </CharString>
          <CharString index="430">
            -15 -80 28 -56 49 -30 -58 -32 -43 -56 -12 -70 rrcurveto
            -107 -17 59 -84 115 hhcurveto
            60 55 23 43 40 hvcurveto
            return
          </CharString>
          <CharString index="431">
            -58 37 66 -33 93 hhcurveto
            84 65 32 48 45 hvcurveto
            -30 -173 -44 callsubr
            endchar
          </CharString>
          <CharString index="432">
            -21 93 108 return
          </CharString>
          <CharString index="433">
            106 -9 callsubr
            return
          </CharString>
          <CharString index="434">
            112 93 155 -155 486 -318 114 -114 318 9 callsubr
            37 132 return
          </CharString>
          <CharString index="435">
            152 -152 412 callgsubr
            33 132 return
          </CharString>
          <CharString index="436">
            -44 hlineto
            -44 383 callgsubr
            41 hhcurveto
            182 hlineto
            17 93 rlineto
            -1 hlineto
            16 90 rlineto
            return
          </CharString>
          <CharString index="437">
            -431 rmoveto
            -107 -53 66 95 18 hvcurveto
            122 10 67 70 return
          </CharString>
          <CharString index="438">
            468 callgsubr
            61 31 50 42 hvcurveto
            return
          </CharString>
          <CharString index="439">
            -112 -2 63 -75 119 hhcurveto
            63 50 23 38 37 hvcurveto
            return
          </CharString>
          <CharString index="440">
            -224 21 434 callgsubr
            17 return
          </CharString>
          <CharString index="441">
            512 callgsubr
            -79 -14 -52 -36 -115 hhcurveto
            -309 hlineto
            return
          </CharString>
          <CharString index="442">
            -107 callgsubr
            endchar
          </CharString>
          <CharString index="443">
            -32 16 43 8 hvcurveto
            return
          </CharString>
          <CharString index="444">
            13 439 callsubr
            return
          </CharString>
          <CharString index="445">
            -23 -133 rlineto
            return
          </CharString>
          <CharString index="446">
            104 -104 -89 callgsubr
            -108 117 hstemhm
            45 132 return
          </CharString>
          <CharString index="447">
            rmoveto
            18 100 rlineto
            -5 -18 -32 -7 -32 hhcurveto
            -54 -47 31 59 11 hvcurveto
            48 8 39 31 60 hhcurveto
            39 hlineto
            return
          </CharString>
          <CharString index="448">
            rmoveto
            -45 -33 32 53 478 callgsubr
            31 57 hhcurveto
            72 394 callsubr
            -65 -12 -35 -39 -56 hhcurveto
            return
          </CharString>
          <CharString index="449">
            325 callsubr
            -89 118 callgsubr
            356 -120 108 176 -25 callgsubr
            617 127 return
          </CharString>
          <CharString index="450">
            -105 -56 63 84 19 hvcurveto
            122 11 64 73 19 112 17 92 rcurveline
            167 hlineto
            -49 -282 rlineto
            return
          </CharString>
          <CharString index="451">
            -41 -235 rlineto
            127 -102 callgsubr
            endchar
          </CharString>
          <CharString index="452">
            118 321 115 -115 252 return
          </CharString>
          <CharString index="453">
            -30 -169 rlineto
            51 -24 -53 32 -78 hhcurveto
            return
          </CharString>
          <CharString index="454">
            -25 callgsubr
            20 1035 -1018 864 return
          </CharString>
          <CharString index="455">
            13 77 rcurveline
            167 hlineto
            return
          </CharString>
          <CharString index="456">
            -2 -11 -1 -13 -12 vvcurveto
            return
          </CharString>
          <CharString index="457">
            377 callgsubr
            hintmask 1001000001100000
            -38 callsubr
            return
          </CharString>
          <CharString index="458">
            13 callgsubr
            -230 rlineto
            -66 -13 -46 -53 -72 hhcurveto
            return
          </CharString>
          <CharString index="459">
            hvcurveto
            48 8 39 36 577 callsubr
            -24 37 60 11 hvcurveto
            9 52 rlineto
            return
          </CharString>
          <CharString index="460">
            232 -232 327 -159 -21 243 91 120 208 callgsubr
            return
          </CharString>
          <CharString index="461">
            74 42 63 71 53 30 -39 -60 -10 vhcurveto
            -95 -17 -92 -35 -94 hhcurveto
            -142 hlineto
            -33 -185 rlineto
            return
          </CharString>
          <CharString index="462">
            13 callsubr
            313 16 63 48 54 68 1 rlinecurve
            63 23 -41 -41 2 hvcurveto
            return
          </CharString>
          <CharString index="463">
            63 -11 -45 62 -100 hhcurveto
            -103 -96 -55 -115 -41 hvcurveto
            return
          </CharString>
          <CharString index="464">
            167 callsubr
            178 hlineto
            33 183 rlineto
            return
          </CharString>
          <CharString index="465">
            545 113 callsubr
            return
          </CharString>
          <CharString index="466">
            rmoveto
            -92 231 callgsubr
            return
          </CharString>
          <CharString index="467">
            -141 -93 -102 -133 -3 hvcurveto
            return
          </CharString>
          <CharString index="468">
            -23 -262 816 0 -20 return
          </CharString>
          <CharString index="469">
            492 477 callsubr
            return
          </CharString>
          <CharString index="470">
            123 698 rlineto
            return
          </CharString>
          <CharString index="471">
            -25 callgsubr
            26 return
          </CharString>
          <CharString index="472">
            -10 -58 -13 -68 -36 -35 -71 -9 rlinecurve
            53 -24 -53 28 -68 hhcurveto
            -99 -98 -50 -124 -22 hvcurveto
            return
          </CharString>
          <CharString index="473">
            131 callsubr
            26 callsubr
            return
          </CharString>
          <CharString index="474">
            -93 callsubr
            353 hlineto
            -27 -154 rlineto
            -78 hlineto
            -118 -105 -63 -126 -22 hvcurveto
            return
          </CharString>
          <CharString index="475">
            185 hmoveto
            40 38 35 43 32 -22 23 -33 -42 -38 -36 -43 -31 24 -23 33 hvcurveto
            endchar
          </CharString>
          <CharString index="476">
            309 0 111 20 108 62 108 180 110 hstemhm
            -42 993 hintmask 10111000
            return
          </CharString>
          <CharString index="477">
            -116 -44 65 79 10 hvcurveto
            6 7 0 7 hhcurveto
            168 387 callgsubr
            24 hvcurveto
            return
          </CharString>
          <CharString index="478">
            78 -15 -66 43 -100 hhcurveto
            -130 -101 241 callgsubr
            -12 -65 15 -52 33 -35 rrcurveto
            return
          </CharString>
          <CharString index="479">
            -10 84 -53 -21 227 83 79 84 153 84 -10 -20 hstemhm
            79 324 -18 323 return
          </CharString>
          <CharString index="480">
            61 -24 -61 33 -88 517 callsubr
            -52 33 -35 rrcurveto
            return
          </CharString>
          <CharString index="481">
            237 204 rmoveto
            -48 -32 32 50 9 hvcurveto
            47 return
          </CharString>
          <CharString index="482">
            44 7 -28 35 168 callgsubr
            -35 -44 -8 hvcurveto
            return
          </CharString>
          <CharString index="483">
            hlineto
            -18 -103 rlineto
            32 hlineto
            68 53 -38 -75 -13 hvcurveto
            return
          </CharString>
          <CharString index="484">
            -67 -383 -100 callgsubr
            return
          </CharString>
          <CharString index="485">
            185 56 callgsubr
            return
          </CharString>
          <CharString index="486">
            hhcurveto
            -130 -107 241 callgsubr
            return
          </CharString>
          <CharString index="487">
            5 23 18 20 51 23 51 24 rcurveline
            return
          </CharString>
          <CharString index="488">
            18 96 rlineto
            -130 hlineto
            -18 -99 rlineto
            return
          </CharString>
          <CharString index="489">
            166 182 callgsubr
            return
          </CharString>
          <CharString index="490">
            126 162 106 190 129 return
          </CharString>
          <CharString index="491">
            70 -13 -49 48 -88 hhcurveto
            return
          </CharString>
          <CharString index="492">
            241 callsubr
            hstem
            return
          </CharString>
          <CharString index="493">
            -16 -90 rlineto
            -91 hlineto
            return
          </CharString>
          <CharString index="494">
            603 632 rmoveto
            return
          </CharString>
          <CharString index="495">
            48 272 rlineto
            return
          </CharString>
          <CharString index="496">
            493 callgsubr
            -63 -13 -65 -48 -15 -82 rlinecurve
            return
          </CharString>
          <CharString index="497">
            441 callgsubr
            558 132 return
          </CharString>
          <CharString index="498">
            hhcurveto
            28 hlineto
            112 callgsubr
            return
          </CharString>
          <CharString index="499">
            113 17 109 -29 483 callsubr
            return
          </CharString>
          <CharString index="500">
            152 216 callgsubr
            endchar
          </CharString>
          <CharString index="501">
            hlineto
            -12 -66 rlineto
            return
          </CharString>
          <CharString index="502">
            34 44 hhcurveto
            54 return
          </CharString>
          <CharString index="503">
            hstemhm
            25 146 return
          </CharString>
          <CharString index="504">
            -30 -172 -24 51 -52 33 -79 2 rlinecurve
            -125 3 -107 -85 -28 -131 rrcurveto
            return
          </CharString>
          <CharString index="505">
            -24 hvcurveto
            -123 -21 82 -90 126 hhcurveto
            466 callgsubr
            return
          </CharString>
          <CharString index="506">
            -18 -35 hhcurveto
            -11 -61 rlineto
            95 54 57 95 17 hvcurveto
            6 38 -1 42 -6 42 rrcurveto
            return
          </CharString>
          <CharString index="507">
            95 callgsubr
            -134 -100 -87 567 callgsubr
            return
          </CharString>
          <CharString index="508">
            899 rmoveto
            44 7 -28 34 -45 hhcurveto
            -43 -40 -34 -44 -8 hvcurveto
            -43 -7 28 -34 return
          </CharString>
          <CharString index="509">
            -112 -20 71 -75 122 hhcurveto
            130 85 85 132 24 hvcurveto
            10 56 rlineto
            return
          </CharString>
          <CharString index="510">
            -355 -44 callsubr
            return
          </CharString>
          <CharString index="511">
            -457 379 callgsubr
            return
          </CharString>
          <CharString index="512">
            82 -126 556 callgsubr
            rlineto
            return
          </CharString>
          <CharString index="513">
            0 91 callgsubr
            return
          </CharString>
          <CharString index="514">
            21 396 callgsubr
            return
          </CharString>
          <CharString index="515">
            -128 -22 hvcurveto
            return
          </CharString>
          <CharString index="516">
            159 51 rmoveto
            12 -24 37 -42 82 -1 115 -2 73 69 18 95 rrcurveto
            return
          </CharString>
          <CharString index="517">
            451 callgsubr
            501 hlineto
            return
          </CharString>
          <CharString index="518">
            -117 -20 91 -63 119 549 callsubr
            return
          </CharString>
          <CharString index="519">
            105 callgsubr
            60 31 -43 -60 -5 hvcurveto
            -1 -1 0 -1 -1 vvcurveto
            return
          </CharString>
          <CharString index="520">
            97 callgsubr
            349 callsubr
            return
          </CharString>
          <CharString index="521">
            107 -92 92 178 -25 callgsubr
            return
          </CharString>
          <CharString index="522">
            hlineto
            107 -3 -70 72 -122 hhcurveto
            return
          </CharString>
          <CharString index="523">
            130 23 -34 99 -142 hhcurveto
            return
          </CharString>
          <CharString index="524">
            -107 callgsubr
            351 hlineto
            return
          </CharString>
          <CharString index="525">
            33 565 callgsubr
            -175 rlineto
            return
          </CharString>
          <CharString index="526">
            -123 475 callsubr
            return
          </CharString>
          <CharString index="527">
            34 565 callgsubr
            -176 rlineto
            return
          </CharString>
          <CharString index="528">
            hhcurveto
            71 hlineto
            -11 -66 rlineto
            -63 -12 return
          </CharString>
          <CharString index="529">
            129 303 130 return
          </CharString>
          <CharString index="530">
            -25 callgsubr
            39 return
          </CharString>
          <CharString index="531">
            35 202 rlineto
            return
          </CharString>
          <CharString index="532">
            938 312 callgsubr
            return
          </CharString>
          <CharString index="533">
            518 callgsubr
            -141 -26 78 -95 return
          </CharString>
          <CharString index="534">
            -107 callgsubr
            512 hlineto
            -16 -90 rlineto
            -246 hlineto
            -96 -69 -45 return
          </CharString>
          <CharString index="535">
            104 -104 -92 callsubr
            return
          </CharString>
          <CharString index="536">
            101 126 248 -98 98 115 436 callgsubr
            22 122 return
          </CharString>
          <CharString index="537">
            164.5 78.5 return
          </CharString>
          <CharString index="538">
            214 rlineto
            -129 hlineto
            89 -214 rlineto
            return
          </CharString>
          <CharString index="539">
            159 109 364 108 hstem
            26 return
          </CharString>
          <CharString index="540">
            -144 -131 -2 -7 258 callgsubr
            return
          </CharString>
          <CharString index="541">
            8 48 -8 38 -16 29 rrcurveto
            152 hlineto
            return
          </CharString>
          <CharString index="542">
            -25 callgsubr
            46 107 return
          </CharString>
          <CharString index="543">
            rmoveto
            -19 -109 rlineto
            return
          </CharString>
          <CharString index="544">
            -3 -6 -21 hvcurveto
            return
          </CharString>
          <CharString index="545">
            rmoveto
            10 59 rlineto
            return
          </CharString>
          <CharString index="546">
            -39 -57 -10 hvcurveto
            return
          </CharString>
          <CharString index="547">
            0 499 -423 109 -98 109 159 105 -69 108 return
          </CharString>
          <CharString index="548">
            -56 -9 -21 -46 -55 hhcurveto
            -53 -19 43 58 9 hvcurveto
            21 123 rlineto
            return
          </CharString>
          <CharString index="549">
            -49 453 callgsubr
            return
          </CharString>
          <CharString index="550">
            -4 -19 rlineto
            -54 -9 -34 -38 -51 hhcurveto
            -56 -19 42 58 9 hvcurveto
            20 return
          </CharString>
          <CharString index="551">
            rrcurveto
            93 callsubr
            107 103 193 callsubr
            return
          </CharString>
          <CharString index="552">
            136 -136 576 -529 337 callgsubr
            58 110 return
          </CharString>
          <CharString index="553">
            40 15 -28 -49 -11 hvcurveto
            115 hlineto
            118 29 -50 62 -89 hhcurveto
            return
          </CharString>
          <CharString index="554">
            -29 10 -15 21 6 30 rrcurveto
            45 7 41 15 41 hhcurveto
            177 hlineto
            return
          </CharString>
          <CharString index="555">
            -107 callgsubr
            140 callsubr
            return
          </CharString>
          <CharString index="556">
            -123 -22 108 -63 136 hhcurveto
            111 84 44 74 53 hvcurveto
            return
          </CharString>
          <CharString index="557">
            hhcurveto
            -10 -57 rlineto
            return
          </CharString>
          <CharString index="558">
            -4 callsubr
            426 76 rmoveto
            -104 callgsubr
            return
          </CharString>
          <CharString index="559">
            545 callsubr
            57 71 47 hvcurveto
            return
          </CharString>
          <CharString index="560">
            567 callsubr
            111 632 rlineto
            return
          </CharString>
          <CharString index="561">
            107 237 103 114 93 87 108 hstem
            28 126 vstem
            return
          </CharString>
          <CharString index="562">
            28 34 21 44 9 54 rrcurveto
            426 83 rmoveto
            -58 callgsubr
            return
          </CharString>
          <CharString index="563">
            -4 callsubr
            772 76 rmoveto
            -104 callgsubr
            return
          </CharString>
          <CharString index="564">
            -99 10 80 -52 109 hhcurveto
            134 86 79 132 22 hvcurveto
            return
          </CharString>
          <CharString index="565">
            91 -21 141 0 208 callgsubr
            35 return
          </CharString>
          <CharString index="566">
            112 97 68 122 22 hvcurveto
            8 47 -8 39 -16 29 rrcurveto
            return
          </CharString>
          <CharString index="567">
            20 6 27 rrcurveto
            42 8 39 18 44 hhcurveto
            175 hlineto
            endchar
          </CharString>
          <CharString index="568">
            hhcurveto
            -162 -76 -105 -140 -26 hvcurveto
            return
          </CharString>
          <CharString index="569" raw="1">
            162a1df7 03060b  
          </CharString>
          <CharString index="570">
            126 126 rlineto
            4 hlineto
            3 hlineto
            return
          </CharString>
          <CharString index="571">
            112 99 65 118 21 hvcurveto
            9 return
          </CharString>
          <CharString index="572">
            5 1 7 1 9 vhcurveto
            -124 hlineto
            return
          </CharString>
          <CharString index="573">
            -87 -16 -53 -58 -110 hhcurveto
            -10 hlineto
            return
          </CharString>
          <CharString index="574">
            92 -92 105 208 364 callsubr
            return
          </CharString>
          <CharString index="575">
            131 215 102 219 133 return
          </CharString>
          <CharString index="576">
            560 callsubr
            -72 -47 return
          </CharString>
          <CharString index="577">
            11 48 41 123 callgsubr
            return
          </CharString>
          <CharString index="578">
            336 callsubr
            49 8 return
          </CharString>
          <CharString index="579">
            hhcurveto
            -58 20 callgsubr
            return
          </CharString>
          <CharString index="580">
            hhcurveto
            105 79 35 61 53 hvcurveto
            return
          </CharString>
          <CharString index="581">
            128 callgsubr
            123 return
          </CharString>
          <CharString index="582">
            -22 83 -90 126 hhcurveto
            return
          </CharString>
          <CharString index="583">
            hlineto
            369 callgsubr
            return
          </CharString>
          <CharString index="584">
            hmoveto
            365 callgsubr
            return
          </CharString>
          <CharString index="585">
            108 -108 return
          </CharString>
          <CharString index="586">
            88 -43 87 hstemhm
            return
          </CharString>
          <CharString index="587">
            282 -210 106 216 103 121 -25 callgsubr
            -3 return
          </CharString>
          <CharString index="588">
            140 hlineto
            206 188 7 5 6 489 callgsubr
            return
          </CharString>
          <CharString index="589">
            -25 callgsubr
            110 207 callgsubr
            return
          </CharString>
          <CharString index="590">
            152 -152 7 callsubr
            return
          </CharString>
          <CharString index="591">
            vstem
            102 586 rmoveto
            95 hlineto
            50 212 rlineto
            -121 hlineto
            return
          </CharString>
          <CharString index="592">
            495 callgsubr
            -21 return
          </CharString>
          <CharString index="593">
            569 callsubr
            -404 116 return
          </CharString>
          <CharString index="594">
            -140 -25 81 -99 158 hhcurveto
            97 72 43 60 47 hvcurveto
            return
          </CharString>
          <CharString index="595">
            424 callsubr
            endchar
          </CharString>
          <CharString index="596">
            hlineto
            10 60 rlineto
            return
          </CharString>
          <CharString index="597" raw="1">
            f7af1539 0b  
          </CharString>
          <CharString index="598">
            167 callgsubr
            hintmask 10101100
            -40 -18 44 -56 hhcurveto
            return
          </CharString>
          <CharString index="599">
            -48 509 callgsubr
            -6 -19 -5 -19 -3 -18 rrcurveto
            return
          </CharString>
          <CharString index="600">
            87 79 108 -99 99 -99 -25 callgsubr
            46 109 return
          </CharString>
          <CharString index="601">
            -152 rmoveto
            152 216 callgsubr
            return
          </CharString>
          <CharString index="602">
            83 50 52 86 16 hvcurveto
            5 32 2 36 -5 40 rrcurveto
            return
          </CharString>
          <CharString index="603">
            hmoveto
            277 callgsubr
            return
          </CharString>
          <CharString index="604">
            -24 -135 rlineto
            -117 149 rmoveto
            -83 -27 54 59 return
          </CharString>
          <CharString index="605">
            113 97 7 callsubr
            return
          </CharString>
          <CharString index="606">
            1 2 1 6 1 8 rrcurveto
            -126 hlineto
            -2 -14 rlineto
            return
          </CharString>
          <CharString index="607">
            -9 419 callgsubr
            178 -103 103 return
          </CharString>
          <CharString index="608">
            56 243 275 callsubr
            -28 -243 -201 11 return
          </CharString>
          <CharString index="609">
            rmoveto
            92 hlineto
            166 283 rlineto
            -148 hlineto
            endchar
          </CharString>
          <CharString index="610">
            470 callsubr
            -41 return
          </CharString>
          <CharString index="611">
            21 -21 51 109 -67 108 return
          </CharString>
          <CharString index="612">
            56 95 17 hvcurveto
            5 28 11 26 return
          </CharString>
          <CharString index="613">
            -148 -27 73 -106 153 hhcurveto
            return
          </CharString>
          <CharString index="614">
            -123 -21 83 -90 125 hhcurveto
            return
          </CharString>
          <CharString index="615">
            hvcurveto
            9 48 -8 38 -16 29 rrcurveto
            return
          </CharString>
          <CharString index="616">
            566 callsubr
            rlineto
            return
          </CharString>
          <CharString index="617">
            316 -211 103 return
          </CharString>
          <CharString index="618">
            53 580 callgsubr
            return
          </CharString>
          <CharString index="619">
            -67 -383 rlineto
            return
          </CharString>
          <CharString index="620">
            -31 -180 rlineto
            return
          </CharString>
          <CharString index="621">
            rlineto
            117 hlineto
            return
          </CharString>
          <CharString index="622">
            rlineto
            hintmask 11101000
            126 -1 3 15 rlineto
            192 34 return
          </CharString>
          <CharString index="623">
            rlineto
            -64 callgsubr
            hintmask 0100100110000000
            return
          </CharString>
          <CharString index="624">
            hhcurveto
            -129 -102 241 callgsubr
            -11 -65 14 return
          </CharString>
          <CharString index="625">
            36 58 10 hvcurveto
            90 16 80 19 104 hhcurveto
            45 hlineto
            return
          </CharString>
          <CharString index="626">
            -3 17 17 -2 19 hhcurveto
            49 46 11 21 38 hvcurveto
            return
          </CharString>
          <CharString index="627">
            hhcurveto
            134 -1 92 326 callgsubr
            10 55 rcurveline
            return
          </CharString>
          <CharString index="628">
            rcurveline
            167 hlineto
            -46 -261 rlineto
            1 vlineto
            -100 -17 return
          </CharString>
          <CharString index="629">
            693 -51 callgsubr
            return
          </CharString>
          <CharString index="630">
            112 -51 callsubr
            return
          </CharString>
          <CharString index="631">
            486 -385 105 -42 -6 callgsubr
            return
          </CharString>
          <CharString index="632">
            -102 rlineto
            150 hlineto
            -45 -31 -30 -47 -10 -55 rrcurveto
            return
          </CharString>
          <CharString index="633">
            -749 419 callgsubr
            185 return
          </CharString>
          <CharString index="634">
            -2 16 16 -2 18 hhcurveto
            63 56 18 34 43 hvcurveto
            return
          </CharString>
          <CharString index="635">
            72 14 223 callgsubr
            16 -64 -79 -11 hvcurveto
            return
          </CharString>
          <CharString index="636">
            157 28 hvcurveto
            83 callgsubr
            return
          </CharString>
          <CharString index="637">
            hlineto
            34 39 23 49 9 53 12 69 rcurveline
            endchar
          </CharString>
          <CharString index="638">
            -64 -55 -40 -91 -29 hvcurveto
            endchar
          </CharString>
          <CharString index="639">
            133 272 128 return
          </CharString>
          <CharString index="640">
            -46 -34 32 53 10 hvcurveto
            return
          </CharString>
          <CharString index="641">
            93 -93 106 -34 114 return
          </CharString>
          <CharString index="642">
            14 77 rcurveline
            166 hlineto
            return
          </CharString>
          <CharString index="643">
            -62 -55 -19 -33 -43 hvcurveto
            return
          </CharString>
          <CharString index="644">
            93 90 108 return
          </CharString>
          <CharString index="645">
            -117 108 return
          </CharString>
          <CharString index="646">
            125 71 89 123 13 hvcurveto
            -111 hlineto
            return
          </CharString>
          <CharString index="647">
            51 8 46 31 87 callgsubr
            return
          </CharString>
          <CharString index="648">
            rmoveto
            -92 -42 60 83 15 hvcurveto
            10 61 99 8 return
          </CharString>
          <CharString index="649">
            86 -86 99 208 -25 callgsubr
            38 125 return
          </CharString>
          <CharString index="650">
            -293 -273 56 callgsubr
            return
          </CharString>
          <CharString index="651">
            rmoveto
            -173 -31 92 -115 142 hhcurveto
            86 return
          </CharString>
          <CharString index="652">
            82 callsubr
            110 81 return
          </CharString>
          <CharString index="653">
            -132 -95 -78 -110 -29 hvcurveto
            122 hlineto
            return
          </CharString>
          <CharString index="654">
            -41 -235 rlineto
            129 hlineto
            54 305 rlineto
            return
          </CharString>
          <CharString index="655">
            19 110 200 411 -85 callgsubr
            return
          </CharString>
          <CharString index="656">
            hhcurveto
            98 81 38 63 53 hvcurveto
            -33 -186 rlineto
            return
          </CharString>
          <CharString index="657">
            -21 222 -201 283 -222 140 return
          </CharString>
          <CharString index="658">
            59 12 52 55 15 82 13 77 rcurveline
            endchar
          </CharString>
          <CharString index="659">
            hhcurveto
            179 hlineto
            12 70 17 94 rlineto
            endchar
          </CharString>
          <CharString index="660">
            -41 55 86 15 hvcurveto
            92 16 return
          </CharString>
          <CharString index="661">
            -15 -81 -48 -57 -96 -6 rrcurveto
            return
          </CharString>
          <CharString index="662">
            -9 -49 -42 -57 hhcurveto
            -61 -34 return
          </CharString>
          <CharString index="663">
            204 rmoveto
            -67 -46 29 61 return
          </CharString>
          <CharString index="664">
            92 -92 197 -27 107 hstemhm
            return
          </CharString>
          <CharString index="665">
            -266 82 63 76 return
          </CharString>
          <CharString index="666">
            108 -99 108 return
          </CharString>
          <CharString index="667">
            480 callgsubr
            -99 return
          </CharString>
          <CharString index="668">
            108 -103 108 return
          </CharString>
          <CharString index="669">
            hstemhm
            48 145 return
          </CharString>
          <CharString index="670">
            hlineto
            3 18 rlineto
            return
          </CharString>
          <CharString index="671">
            rlineto
            -112 hlineto
            return
          </CharString>
          <CharString index="672">
            rlineto
            128 hlineto
            return
          </CharString>
          <CharString index="673">
            130 130 return
          </CharString>
          <CharString index="674">
            143 hlineto
            -67 -382 rlineto
            129 hlineto
            return
          </CharString>
          <CharString index="675">
            15 42 7 hvcurveto
            46 9 40 13 42 hhcurveto
            return
          </CharString>
          <CharString index="676">
            110 hstemhm
            61 122 -122 448 return
          </CharString>
          <CharString index="677">
            -118 -98 -40 -77 -60 hvcurveto
            -219 hlineto
            return
          </CharString>
          <CharString index="678">
            147 -147 474 -474 575 return
          </CharString>
          <CharString index="679">
            109 358 256 callgsubr
            return
          </CharString>
          <CharString index="680">
            -10 -1 -8 hhcurveto
            -79 -38 49 87 15 hvcurveto
            return
          </CharString>
          <CharString index="681">
            55 46 callsubr
            return
          </CharString>
          <CharString index="682">
            72 105 172 -25 callgsubr
            22 124 return
          </CharString>
          <CharString index="683">
            -120 -199 119 888 118 return
          </CharString>
          <CharString index="684">
            77 hhcurveto
            53 339 callgsubr
            -43 hlineto
            -77 return
          </CharString>
          <CharString index="685">
            91 16 92 rlineto
            endchar
          </CharString>
          <CharString index="686">
            -5 callsubr
            endchar
          </CharString>
          <CharString index="687">
            293 rmoveto
            58 return
          </CharString>
          <CharString index="688">
            22 125 rlineto
            return
          </CharString>
          <CharString index="689">
            -3 -6 -20 hvcurveto
            return
          </CharString>
          <CharString index="690">
            rlineto
            149 hlineto
            return
          </CharString>
        <CharString name=".notdef">
          -128 0 50 600 50 hstem
          0 50 400 50 vstem
          0 vmoveto
          500 700 -500 hlineto
          250 -305 rmoveto
          -170 255 rlineto
          340 hlineto
          -140 -300 rmoveto
          170 255 rlineto
          -510 vlineto
          -370 -45 rmoveto
          170 255 170 -255 rlineto
          -370 555 rmoveto
          170 -255 -170 -255 rlineto
          endchar
        </CharString>
        <CharString name="A">
          5 callgsubr
          hintmask 10110000
          -18 109 96 callgsubr
        </CharString>
        <CharString name="AE">
          369 callsubr
          530 597 70 callgsubr
        </CharString>
        <CharString name="Aacute">
          5 callgsubr
          -135 705 -51 callgsubr
          hintmask 10110000
          -135 -715 96 callgsubr
        </CharString>
        <CharString name="Abreve">
          95 callsubr
          72 106 hstemhm
          -26 665 hintmask 10111000
          -13 callgsubr
          hintmask 01111000
          209 callsubr
          158 773 -90 callsubr
          hintmask 10111000
          -176 -664 96 callgsubr
        </CharString>
        <CharString name="Acircumflex">
          5 callgsubr
          136 710 -39 callgsubr
          hintmask 10110000
          -136 -498 96 callgsubr
        </CharString>
        <CharString name="Adieresis">
          138 callsubr
          -346 274 callgsubr
          21 callgsubr
          hintmask 10101100
          -119 632 -95 callsubr
          -84 -523 96 callgsubr
        </CharString>
        <CharString name="Agrave">
          5 callgsubr
          -134 710 17 callsubr
          hintmask 10110000
          96 -715 96 callgsubr
        </CharString>
        <CharString name="Amacron">
          95 callsubr
          98 100 hstemhm
          -26 679 hintmask 10111000
          -13 callgsubr
          hintmask 01111000
          209 callsubr
          -216 644 55 callgsubr
          hintmask 10111000
          180 -635 96 callgsubr
        </CharString>
        <CharString name="Aogonek">
          88 -214 84 151 -21 133 109 457 -20 hstem
          -26 665 vstem
          349 699 rmoveto
          -375 -699 rlineto
          147 hlineto
          209 callsubr
          19 -118 -55 -37 -23 -40 -7 -39 rlinecurve
          -81 -14 63 -32 72 hhcurveto
          32 33 6 9 27 hvcurveto
          15 84 rlineto
          -10 -28 -25 -5 -20 hhcurveto
          -32 -16 16 25 5 hvcurveto
          4 22 17 20 52 23 51 24 rcurveline
          -127 699 rlineto
          -61 -457 96 callgsubr
        </CharString>
        <CharString name="Aring">
          95 callsubr
          68 65 100 65 hstemhm
          -26 665 hintmask 10111100
          -13 callgsubr
          hintmask 01111100
          209 callsubr
          41 729 rmoveto
          -29 -5 -26 -21 -28 hhcurveto
          -28 -18 21 29 5 hvcurveto
          31 6 25 19 27 hhcurveto
          29 19 -19 -31 -6 hvcurveto
          -165 hmoveto
          -71 -13 44 -44 64 hhcurveto
          64 58 44 71 12 hvcurveto
          71 13 -43 44 -64 hhcurveto
          -63 -59 -44 -71 -13 hvcurveto
          hintmask 10111100
          106 -620 96 callgsubr
        </CharString>
        <CharString name="Atilde">
          95 callsubr
          74 479 callsubr
          -26 675 hintmask 10110100
          -13 callgsubr
          hintmask 01101100
          209 callsubr
          -209 621 440 callgsubr
          69 callsubr
          491 callsubr
          hintmask 01101100
          -64 -55 -40 -91 -29 hvcurveto
          hintmask 10110100
          191 -512 96 callgsubr
        </CharString>
        <CharString name="B">
          15 0 111 192 105 180 110 hstem
          17 610 vstem
          443 206 rmoveto
          -61 -10 -46 -34 -68 hhcurveto
          -141 hlineto
          33 192 rlineto
          138 hlineto
          68 37 -37 -60 -11 hvcurveto
          35 291 rmoveto
          -57 -10 -45 -32 -65 hhcurveto
          -128 hlineto
          32 180 rlineto
          127 hlineto
          66 32 -34 -57 -9 hvcurveto
          104 -308 rmoveto
          15 82 -45 72 -74 15 71 22 61 53 14 85 rrcurveto
          104 19 -68 76 -146 hhcurveto
          -288 532 callgsubr
          301 hlineto
          145 100 78 111 19 hvcurveto
          endchar
        </CharString>
        <CharString name="C">
          140 -6 128 456 129 hstem
          40 145 -47 callsubr
          endchar
        </CharString>
        <CharString name="CR">
          -360 endchar
        </CharString>
        <CharString name="Cacute">
          140 -6 128 456 129 hstem
          40 145 -47 callsubr
          314 488 -51 callgsubr
          endchar
        </CharString>
        <CharString name="Ccaron">
          140 -6 128 456 129 hstem
          40 145 -47 callsubr
          435 490 -32 callsubr
        </CharString>
        <CharString name="Ccedilla">
          140 558 callsubr
          41 126 -105 -21 582 129 hstemhm
          40 145 hintmask 11011100
          46 350 rmoveto
          -34 -194 105 -140 176 -20 -20 -117 rcurveline
          -15 callgsubr
          75 14 -56 34 -68 hhcurveto
          7 41 137 14 121 80 66 130 rlinecurve
          hintmask 11101100
          -161 hlineto
          -65 -44 -67 -33 -75 hhcurveto
          -122 -71 90 350 callgsubr
          139 24 102 89 123 hhcurveto
          75 54 -33 -64 22 hvcurveto
          161 hlineto
          143 -22 -112 83 -155 hhcurveto
          hintmask 11011100
          -201 -178 -148 -209 -37 hvcurveto
          endchar
        </CharString>
        <CharString name="Cdotaccent">
          140 -6 128 456 129 58 133 hstem
          40 145 228 132 -47 callsubr
          422 415 -55 callgsubr
        </CharString>
        <CharString name="D">
          70 callsubr
          endchar
        </CharString>
        <CharString name="Dcaron">
          70 callsubr
          176 726 -32 callsubr
        </CharString>
        <CharString name="Dcroat">
          27 callgsubr
        </CharString>
        <CharString name="E">
          204 callgsubr
          hstem
          17 529 vstem
          -87 callsubr
          endchar
        </CharString>
        <CharString name="Eacute">
          204 callgsubr
          hstem
          17 529 vstem
          -87 callsubr
          -284 249 -51 callgsubr
          endchar
        </CharString>
        <CharString name="Ebreve">
          204 callgsubr
          52 106 hstem
          17 529 vstem
          -87 callsubr
          9 317 -90 callsubr
          endchar
        </CharString>
        <CharString name="Ecaron">
          204 callgsubr
          hstem
          17 529 vstem
          -87 callsubr
          -163 251 -32 callsubr
        </CharString>
        <CharString name="Ecircumflex">
          204 callgsubr
          hstem
          17 529 vstem
          -87 callsubr
          -14 254 -39 callgsubr
          endchar
        </CharString>
        <CharString name="Edieresis">
          204 callgsubr
          hstemhm
          17 529 -344 274 callgsubr
          hintmask 11110000
          -87 callsubr
          hintmask 11101100
          -268 176 -95 callsubr
          endchar
        </CharString>
        <CharString name="Edotaccent">
          204 callgsubr
          66 133 hstemhm
          17 529 -250 132 hintmask 11101000
          -87 callsubr
          hintmask 11110100
          -176 176 -55 callgsubr
        </CharString>
        <CharString name="Egrave">
          204 callgsubr
          hstem
          17 529 vstem
          -87 callsubr
          -283 254 17 callsubr
          endchar
        </CharString>
        <CharString name="Emacron">
          204 callgsubr
          78 100 hstem
          17 545 vstem
          -87 callsubr
          -365 188 55 callgsubr
          endchar
        </CharString>
        <CharString name="Eogonek">
          -96 -214 84 130 82 callgsubr
          hstem
          17 529 vstem
          45 callsubr
          246 hlineto
          -48 -33 -21 -34 -7 -36 rrcurveto
          35 callgsubr
          20 111 rlineto
          -265 hlineto
          33 189 rlineto
          235 -22 callsubr
          -235 hlineto
          32 181 rlineto
          265 hlineto
          endchar
        </CharString>
        <CharString name="Eth">
          27 callgsubr
        </CharString>
        <CharString name="Euro">
          171 -6 128 109 83 74 83 107 129 hstem
          13 792 vstem
          101 350 rmoveto
          -2 -12 -2 -12 -1 -12 rrcurveto
          -68 583 callgsubr
          85 hlineto
          -144 20 113 -93 161 hhcurveto
          154 140 82 144 73 hvcurveto
          -161 hlineto
          -65 -44 -66 -33 -75 hhcurveto
          -82 -59 41 68 -22 hvcurveto
          192 hlineto
          15 83 rlineto
          -216 hlineto
          12 2 12 2 12 vhcurveto
          2 13 3 13 4 12 rrcurveto
          216 hlineto
          14 83 rlineto
          -191 hlineto
          67 46 73 40 82 hhcurveto
          75 53 -33 -64 22 hvcurveto
          161 hlineto
          143 -22 -111 83 -155 hhcurveto
          -160 -145 -93 -143 -71 hvcurveto
          -86 hlineto
          -14 -83 rlineto
          68 hlineto
          -3 -12 -3 -13 -2 -13 rrcurveto
          endchar
        </CharString>
        <CharString name="F">
          -98 21 -21 297 108 183 110 hstem
          17 555 vstem
          17 hmoveto
          141 hlineto
          52 297 rlineto
          223 -22 callsubr
          -222 hlineto
          32 183 rlineto
          290 hlineto
          20 110 rlineto
          -431 hlineto
          endchar
        </CharString>
        <CharString name="G">
          140 -6 383 callsubr
          hstem
          40 145 vstem
          46 350 -57 callgsubr
          endchar
        </CharString>
        <CharString name="Gbreve">
          140 -6 383 callsubr
          44 106 hstem
          40 145 vstem
          46 350 -57 callgsubr
          606 556 -90 callsubr
          endchar
        </CharString>
        <CharString name="Gdotaccent">
          140 -6 383 callsubr
          58 133 hstem
          40 145 228 132 vstem
          46 350 -57 callgsubr
          422 415 -55 callgsubr
        </CharString>
        <CharString name="H">
          89 0 409 -110 399 hstemhm
          17 703 hintmask 10100000
          456 hmoveto
          141 hlineto
          hintmask 01100000
          363 callsubr
          -140 hlineto
          hintmask 10100000
          -51 -289 rlineto
          -299 hlineto
          hintmask 01100000
          51 289 275 callsubr
          hintmask 10100000
          -124 -698 128 callgsubr
          hintmask 01100000
          53 299 rlineto
          298 hlineto
          endchar
        </CharString>
        <CharString name="I">
          -350 385 callsubr
          17 264 vstem
          61 callgsubr
          endchar
        </CharString>
        <CharString name="Iacute">
          -350 385 callsubr
          17 350 vstem
          61 callgsubr
          -26 140 -51 callgsubr
          endchar
        </CharString>
        <CharString name="Icircumflex">
          -350 385 callsubr
          17 369 vstem
          61 callgsubr
          245 145 -39 callgsubr
          endchar
        </CharString>
        <CharString name="Idieresis">
          -350 21 477 callgsubr
          17 377 -320 274 callgsubr
          hintmask 11100000
          61 callgsubr
          hintmask 11011000
          -10 67 -95 callsubr
          endchar
        </CharString>
        <CharString name="Idotaccent">
          -350 241 callsubr
          87 133 hstemhm
          17 285 -133 132 hintmask 11110000
          61 callgsubr
          hintmask 11101000
          83 67 -55 callgsubr
        </CharString>
        <CharString name="Igrave">
          -350 385 callsubr
          17 328 vstem
          61 callgsubr
          -25 145 17 callsubr
          endchar
        </CharString>
        <CharString name="Imacron">
          -350 241 callsubr
          99 100 hstem
          17 418 vstem
          61 callgsubr
          -106 79 55 callgsubr
          endchar
        </CharString>
        <CharString name="Iogonek">
          -350 -213 84 151 -21 697 -20 hstem
          -79 360 vstem
          136 -198 109 callsubr
          49 23 rcurveline
          1 1 1 hlineto
          -1 2 123 695 275 callsubr
          -122 -684 -62 -37 -26 -38 -8 230 callgsubr
          endchar
        </CharString>
        <CharString name="Itilde">
          -350 241 callsubr
          75 479 callsubr
          17 413 hintmask 11101000
          61 callgsubr
          hintmask 11011000
          -100 56 15 callsubr
        </CharString>
        <CharString name="J">
          -58 -7 125 -125 220 485 -20 hstemhm
          17 531 hintmask 10110000
          321 208 rmoveto
          -55 -10 -33 -35 -51 hhcurveto
          hintmask 01110000
          -54 -20 36 59 10 hvcurveto
          -141 hlineto
          hintmask 10110000
          -141 -25 79 -79 131 hhcurveto
          129 101 77 350 callgsubr
          86 490 579 callsubr
        </CharString>
        <CharString name="K">
          35 385 callsubr
          17 687 vstem
          411 hmoveto
          196 callgsubr
        </CharString>
        <CharString name="L">
          557 callgsubr
          hstem
          17 390 vstem
          141 698 rmoveto
          102 callgsubr
          endchar
        </CharString>
        <CharString name="Lacute">
          557 callgsubr
          hstem
          17 435 vstem
          141 698 rmoveto
          102 callgsubr
          -81 140 -51 callgsubr
          endchar
        </CharString>
        <CharString name="Lcaron">
          -137 0 107 346 57 80 108 hstem
          423.5 79.5 vstem
          387 698 rmoveto
          -20 -108 553 callgsubr
          -7 -21 -20 -33 450 callsubr
          83 51 51 87 15 hvcurveto
          6 32 1 36 -4 39 rrcurveto
          -362 hmoveto
          102 callgsubr
          endchar
        </CharString>
        <CharString name="Ldot">
          557 callgsubr
          87 133 hstemhm
          17 390 -153 132 hintmask 11110000
          141 698 rmoveto
          102 callgsubr
          hintmask 11101000
          28 67 -55 callgsubr
        </CharString>
        <CharString name="Lslash">
          -165 0 107 591 -20 hstem
          3 416 vstem
          153 698 rmoveto
          -52 -291 -75 -22 -23 -132 75 22 -49 -275 rlineto
          371 581 callgsubr
          -229 hlineto
          37 212 93 27 23 133 -92 -27 43 246 rlineto
          endchar
        </CharString>
        <CharString name="M">
          271 385 callsubr
          17 885 vstem
          17 hmoveto
          141 hlineto
          80 453 107 -453 rlineto
          107 hlineto
          266 452 -80 -452 474 callsubr
          698 rlineto
          -159 hlineto
          -312 -518 -131 518 rlineto
          -159 hlineto
          endchar
        </CharString>
        <CharString name="N">
          107 21 -21 699 -20 hstem
          17 721 vstem
          598 699 6 callsubr
          endchar
        </CharString>
        <CharString name="NULL">
          -628 endchar
        </CharString>
        <CharString name="Nacute">
          107 21 -21 699 -20 hstem
          17 721 vstem
          598 699 6 callsubr
          -394 139 -51 callgsubr
          endchar
        </CharString>
        <CharString name="Ncaron">
          107 21 -21 699 -20 hstem
          17 721 vstem
          598 699 6 callsubr
          -273 141 -32 callsubr
        </CharString>
        <CharString name="Ntilde">
          107 21 -21 699 -20 74 479 callsubr
          17 721 hintmask 11101000
          598 699 6 callsubr
          hintmask 11011000
          -468 55 15 callsubr
        </CharString>
        <CharString name="O">
          141 callsubr
          hstem
          208 callsubr
          vstem
          -99 callgsubr
          endchar
        </CharString>
        <CharString name="OE">
          448 -8 128 -120 111 189 107 172 129 -120 110 hstemhm
          45 144 hintmask 01101100
          1071 588 rmoveto
          20 110 rlineto
          -406 hlineto
          hintmask 10110100
          -15 -89 rlineto
          66 -43 -74 33 -94 hhcurveto
          -189 -182 -147 -211 -37 hvcurveto
          -210 -37 129 -148 191 hhcurveto
          93 1 85 32 67 68 rrcurveto
          hintmask 01101100
          -17 -93 rlineto
          405 hlineto
          20 111 rlineto
          -265 hlineto
          33 189 rlineto
          235 hlineto
          20 107 rlineto
          -235 hlineto
          31 181 rlineto
          hintmask 10110100
          -358 -9 rmoveto
          126 72 -89 -140 -24 hvcurveto
          -139 -25 -104 -91 -126 hhcurveto
          -126 -71 91 139 24 hvcurveto
          140 25 103 89 126 hhcurveto
          endchar
        </CharString>
        <CharString name="Oacute">
          141 callsubr
          hstem
          208 callsubr
          vstem
          -99 callgsubr
          176 546 -51 callgsubr
          endchar
        </CharString>
        <CharString name="Ocircumflex">
          141 callsubr
          hstem
          208 callsubr
          vstem
          -99 callgsubr
          447 551 -39 callgsubr
          endchar
        </CharString>
        <CharString name="Odieresis">
          141 callsubr
          hstemhm
          47 143 135 274 callgsubr
          -28 142 hintmask 11110100
          -99 callgsubr
          192 473 rmoveto
          40 38 35 43 32 -22 23 -33 -42 -38 -36 -43 -31 24 -23 33 hvcurveto
          hintmask 11111000
          368 callsubr
        </CharString>
        <CharString name="Ograve">
          141 callsubr
          hstem
          208 callsubr
          vstem
          -99 callgsubr
          177 551 17 callsubr
          endchar
        </CharString>
        <CharString name="Ohungarumlaut">
          141 callsubr
          45 188 hstem
          208 callsubr
          vstem
          -99 callgsubr
          437 642 67 callgsubr
        </CharString>
        <CharString name="Omacron">
          141 callsubr
          76 100 hstem
          208 callsubr
          vstem
          -99 callgsubr
          96 485 55 callgsubr
          endchar
        </CharString>
        <CharString name="Oslash">
          157 -7 129 -101 -21 579 129 -8 -20 hstemhm
          208 callsubr
          hintmask 10101100
          759 416 rmoveto
          66 -17 58 -32 47 vhcurveto
          hintmask 10011100
          123 113 rlineto
          -97 hlineto
          hintmask 01101100
          -69 -63 rlineto
          45 -51 -71 26 -84 hhcurveto
          -240 -174 -177 -244 -67 18 -59 32 -47 hvcurveto
          -124 -114 rlineto
          97 hlineto
          hintmask 10101100
          70 64 rlineto
          -45 51 70 -26 83 hhcurveto
          242 173 177 246 hvcurveto
          -569 -117 rmoveto
          152 99 128 153 50 41 -14 -25 29 vhcurveto
          -356 -326 rlineto
          -11 24 -5 29 32 vvcurveto
          174 -177 rmoveto
          -50 -40 14 25 -29 hvcurveto
          356 326 rlineto
          11 -24 5 -28 -32 vvcurveto
          -151 -99 -130 -154 vhcurveto
          endchar
        </CharString>
        <CharString name="Otilde">
          141 callsubr
          52 479 callsubr
          208 callsubr
          hintmask 11101100
          -99 callgsubr
          hintmask 11011100
          103 462 46 callsubr
          hintmask 11101100
          293 callgsubr
          69 callsubr
          167 callgsubr
          hintmask 11011100
          43 callsubr
        </CharString>
        <CharString name="P">
          -20 21 -21 268 110 209 111 hstem
          17 598 vstem
          225 378 rmoveto
          37 209 rlineto
          110 hlineto
          80 27 -41 -64 -11 hvcurveto
          -62 -11 -42 -42 -79 hhcurveto
          275 104 rmoveto
          121 21 -66 95 -168 hhcurveto
          -257 532 callgsubr
          141 hlineto
          47 268 514 callsubr
          180 91 108 106 18 hvcurveto
          endchar
        </CharString>
        <CharString name="Q">
          159 -7 129 457 129 hstem
          208 callsubr
          vstem
          190 299 rmoveto
          152 99 128 153 111 64 -67 -109 -151 -99 -130 -154 -111 -63 68 109 vhcurveto
          569 117 rmoveto
          172 -117 120 -181 -240 -174 -177 -244 -173 118 -121 179 31 31 3 6 28 vhcurveto
          82 -125 rlineto
          174 hlineto
          -125 175 rlineto
          120 71 74 132 161 vvcurveto
          endchar
        </CharString>
        <CharString name="R">
          -26 callgsubr
          endchar
        </CharString>
        <CharString name="Racute">
          -26 callgsubr
          -109 140 -51 callgsubr
          endchar
        </CharString>
        <CharString name="Rcaron">
          -26 callgsubr
          13 142 -32 callsubr
        </CharString>
        <CharString name="S">
          -18 -7 112 490 113 hstem
          83 147 167 148 vstem
          545 200 rmoveto
          -33 callgsubr
          160 103 87 120 hvcurveto
          endchar
        </CharString>
        <CharString name="Sacute">
          -18 -7 112 490 113 hstem
          83 147 167 148 vstem
          545 200 rmoveto
          -33 callgsubr
          160 103 87 120 hvcurveto
          -260 638 -51 callgsubr
          endchar
        </CharString>
        <CharString name="Scaron">
          -18 -7 112 490 113 hstem
          83 147 167 148 vstem
          545 200 rmoveto
          -33 callgsubr
          160 103 87 120 hvcurveto
          -138 640 -32 callsubr
        </CharString>
        <CharString name="T">
          -51 21 -21 588 110 hstem
          84 532 vstem
          84 588 153 callsubr
          endchar
        </CharString>
        <CharString name="Tcaron">
          -51 21 -21 588 110 hstem
          84 532 vstem
          84 588 153 callsubr
          281 142 -32 callsubr
        </CharString>
        <CharString name="Thorn">
          -20 0 245 -107 107 210 478 callsubr
          244 hstemhm
          17 575 hintmask 10101000
          201 245 rmoveto
          38 210 rlineto
          110 hlineto
          80 27 -42 -63 -11 hvcurveto
          -63 -12 -42 -42 -79 hhcurveto
          hintmask 01101000
          276 105 rmoveto
          119 21 -67 94 -168 hhcurveto
          -118 hlineto
          hintmask 10011000
          24 136 rlineto
          -139 251 callgsubr
          hintmask 01101000
          24 138 514 callsubr
          180 90 106 106 19 hvcurveto
          endchar
        </CharString>
        <CharString name="U">
          210 callsubr
          hstem
          57 142 vstem
          -92 callgsubr
          endchar
        </CharString>
        <CharString name="Uacute">
          210 callsubr
          hstem
          57 142 vstem
          -92 callgsubr
          185 140 -51 callgsubr
          endchar
        </CharString>
        <CharString name="Ubreve">
          210 callsubr
          73 106 hstem
          57 142 vstem
          -92 callgsubr
          478 208 -90 callsubr
          endchar
        </CharString>
        <CharString name="Ucircumflex">
          210 callsubr
          hstem
          57 142 vstem
          -92 callgsubr
          456 145 -39 callgsubr
          endchar
        </CharString>
        <CharString name="Udieresis">
          210 callsubr
          hstem
          57 142 85 274 callgsubr
          vstem
          -92 callgsubr
          202 67 -95 callsubr
          endchar
        </CharString>
        <CharString name="Ugrave">
          210 callsubr
          hstem
          57 142 vstem
          -92 callgsubr
          186 145 17 callsubr
          endchar
        </CharString>
        <CharString name="Uhungarumlaut">
          210 callsubr
          68 188 hstem
          57 142 vstem
          -92 callgsubr
          446 236 67 callgsubr
        </CharString>
        <CharString name="Umacron">
          210 callsubr
          99 100 hstem
          57 142 vstem
          -92 callgsubr
          105 79 55 callgsubr
          endchar
        </CharString>
        <CharString name="Uogonek">
          69 -213 84 -84 334 577 -20 hstemhm
          58 141 hintmask 10110000
          63 267 rmoveto
          -26 -151 69 -87 110 -27 -49 -33 -22 -34 -7 -37 rrcurveto
          35 callgsubr
          122 26 104 87 27 153 76 431 rcurveline
          -141 hlineto
          -76 -431 rlineto
          hintmask 01110000
          -96 -17 -61 -50 -90 hhcurveto
          -89 -43 50 96 17 hvcurveto
          76 431 275 callsubr
          endchar
        </CharString>
        <CharString name="Uring">
          210 callsubr
          69 65 100 65 hstem
          57 142 vstem
          -92 callgsubr
          196 164 -7 callgsubr
          endchar
        </CharString>
        <CharString name="Utilde">
          210 callsubr
          75 479 callsubr
          57 142 hintmask 11101000
          -92 callgsubr
          hintmask 11011000
          112 56 15 callsubr
        </CharString>
        <CharString name="V">
          83 0 143 -122 477 callgsubr
          86 682 hintmask 01110000
          219 hmoveto
          170 hlineto
          379 698 rlineto
          -149 hlineto
          hintmask 10110000
          -290 -555 -93 555 rlineto
          -150 hlineto
          endchar
        </CharString>
        <CharString name="W">
          178 callsubr
          -34 callgsubr
          endchar
        </CharString>
        <CharString name="Wacute">
          178 callsubr
          -34 callgsubr
          412 144 -51 callgsubr
          endchar
        </CharString>
        <CharString name="Wcircumflex">
          178 callsubr
          -34 callgsubr
          635 149 -39 callgsubr
          endchar
        </CharString>
        <CharString name="Wdieresis">
          178 callsubr
          -656 274 callgsubr
          -34 callgsubr
          hintmask 01101100
          381 68 -95 callsubr
          endchar
        </CharString>
        <CharString name="Wgrave">
          178 callsubr
          -34 callgsubr
          345 145 17 callsubr
          endchar
        </CharString>
        <CharString name="X">
          58 385 callsubr
          -11 727 vstem
          435 hmoveto
          161 hlineto
          -162 347 282 351 rlineto
          -159 hlineto
          -177 -234 -109 234 rlineto
          -161 hlineto
          161 -347 -282 -351 rlineto
          158 hlineto
          179 234 rlineto
          endchar
        </CharString>
        <CharString name="Y">
          8 385 callsubr
          83 613 vstem
          -14 callsubr
          endchar
        </CharString>
        <CharString name="Yacute">
          8 385 callsubr
          83 613 vstem
          -14 callsubr
          211 140 -51 callgsubr
          endchar
        </CharString>
        <CharString name="Ycircumflex">
          8 385 callsubr
          83 613 vstem
          -14 callsubr
          482 145 -39 callgsubr
          endchar
        </CharString>
        <CharString name="Ydieresis">
          8 21 477 callgsubr
          83 613 -443 274 callgsubr
          hintmask 11100000
          -14 callsubr
          hintmask 11011000
          227 67 -95 callsubr
          endchar
        </CharString>
        <CharString name="Ygrave">
          8 385 callsubr
          83 613 vstem
          -14 callsubr
          212 145 17 callsubr
          endchar
        </CharString>
        <CharString name="Z">
          -52 0 118 462 118 hstem
          -2 600 vstem
          28 callgsubr
          endchar
        </CharString>
        <CharString name="Zacute">
          -52 0 118 462 118 hstem
          -2 600 vstem
          28 callgsubr
          -314 248 -51 callgsubr
          endchar
        </CharString>
        <CharString name="Zcaron">
          -52 0 118 462 118 hstem
          -2 600 vstem
          28 callgsubr
          -193 250 -32 callsubr
        </CharString>
        <CharString name="Zdotaccent">
          -52 0 118 462 118 67 133 hstemhm
          -2 600 -281 132 hintmask 11010000
          28 callgsubr
          hintmask 11101000
          -206 175 -55 callgsubr
        </CharString>
        <CharString name="a">
          50 49 callgsubr
          -9 -20 396 callsubr
          hintmask 10101000
          -8 callsubr
          hintmask 01011000
          -15 -81 rlineto
          8 callgsubr
          hintmask 10101000
          -14 -79 rlineto
          46 -24 -54 42 -89 hhcurveto
          -141 -99 callsubr
          endchar
        </CharString>
        <CharString name="a.ss02">
          39 callsubr
          217 callgsubr
          hintmask 00101110
          356 hmoveto
          142 hlineto
          -93 callgsubr
          hvcurveto
          hintmask 10001110
          114 callsubr
          hintmask 01011110
          -27 callgsubr
        </CharString>
        <CharString name="aacute">
          50 49 callgsubr
          -9 -20 396 callsubr
          hintmask 10101000
          -8 callsubr
          hintmask 01011000
          -15 -81 rlineto
          8 callgsubr
          hintmask 10101000
          -14 -79 rlineto
          46 -24 -54 42 -89 hhcurveto
          -141 -99 callsubr
          -175 416 -51 callgsubr
          endchar
        </CharString>
        <CharString name="aacute.ss02">
          39 callsubr
          217 callgsubr
          hintmask 00101110
          291 522 callsubr
          -187 -812 -70 callsubr
          hintmask 10001110
          114 callsubr
          hintmask 01011110
          -27 callgsubr
        </CharString>
        <CharString name="abreve">
          50 49 callgsubr
          -9 -20 72 106 396 callsubr
          -82 callsubr
          118 484 -90 callsubr
          endchar
        </CharString>
        <CharString name="abreve.ss02">
          39 callsubr
          38 106 217 callgsubr
          hintmask 00101111
          584 761 -90 callsubr
          -228 -761 -72 callgsubr
        </CharString>
        <CharString name="acircumflex">
          50 49 callgsubr
          -9 -20 164 -20 396 callsubr
          -82 callsubr
          95 421 -39 callgsubr
          endchar
        </CharString>
        <CharString name="acircumflex.ss02">
          39 callsubr
          130 -20 217 callgsubr
          hintmask 00101111
          561 698 -39 callgsubr
          -187 -595 -72 callgsubr
        </CharString>
        <CharString name="acute">
          -378 593 219 hstem
          63 270 vstem
          81 522 callsubr
          endchar
        </CharString>
        <CharString name="adieresis">
          50 49 callgsubr
          -9 -20 86 133 396 callsubr
          79 274 callgsubr
          -82 callsubr
          hintmask 10101111
          -159 343 -95 callsubr
          endchar
        </CharString>
        <CharString name="adieresis.ss02">
          39 callsubr
          52 133 hstemhm
          8 147 95 135 30 145 -125 135 hintmask 0010111101000000
          307 620 -95 callsubr
          -136 -620 rmoveto
          hintmask 0010111010000000
          142 hlineto
          -93 callgsubr
          hvcurveto
          hintmask 1000111010000000
          114 callsubr
          hintmask 0101111010000000
          -27 callgsubr
        </CharString>
        <CharString name="ae">
          449 -42 callsubr
          endchar
        </CharString>
        <CharString name="agrave">
          50 49 callgsubr
          -9 -20 164 -20 396 callsubr
          -82 callsubr
          -174 421 17 callsubr
          endchar
        </CharString>
        <CharString name="agrave.ss02">
          39 callsubr
          130 -20 217 callgsubr
          hintmask 00101111
          292 698 17 callsubr
          44 -812 -72 callgsubr
        </CharString>
        <CharString name="amacron">
          50 49 callgsubr
          -9 -20 98 100 396 callsubr
          -82 callsubr
          -256 355 55 callgsubr
          endchar
        </CharString>
        <CharString name="amacron.ss02">
          39 callsubr
          64 100 217 callgsubr
          hintmask 00101111
          210 632 55 callgsubr
          128 -732 -72 callgsubr
        </CharString>
        <CharString name="ampersand">
          162 -12 116 -104 364 180 167 -107 107 hstemhm
          16 144 22 138 131 138 hintmask 01101010
          586 544 rmoveto
          2 10 1 9 9 vvcurveto
          77 -59 62 -113 vhcurveto
          hintmask 01101110
          -138 -97 -82 -120 -32 9 -29 23 -34 hvcurveto
          hintmask 10101010
          -116 -47 -82 -88 -112 vvcurveto
          -112 87 -67 140 95 82 29 58 75 vhcurveto
          hintmask 01011110
          63 -75 rlineto
          172 hlineto
          -140 167 19 23 18 24 19 27 rlinecurve
          92 123 rlineto
          -146 hlineto
          -74 -95 -2 -3 -2 -3 -2 -3 rlinecurve
          -147 175 rlineto
          -30 39 -15 28 28 vvcurveto
          41 33 33 44 33 21 -18 -30 vhcurveto
          hintmask 10101010
          -4 0 -4 -1 -4 vhcurveto
          -183 -440 rmoveto
          -67 -40 37 50 62 47 49 73 30 hvcurveto
          142 -170 rlineto
          -38 -47 -51 -20 -57 hhcurveto
          endchar
        </CharString>
        <CharString name="ampersand.ss03">
          44 -8 116 -87 -21 308 107 99 220 -117 117 hstemhm
          15 126 50 139 123 137 hintmask 10101110
          194 564 rmoveto
          -9 -51 12 -45 33 -53 -99 -11 -92 -82 -20 -115 rrcurveto
          -123 -22 74 -92 127 hhcurveto
          87 79 48 65 44 hvcurveto
          hintmask 01101111
          58 -105 rlineto
          157 hlineto
          -273 479 -20 34 -4 20 4 24 rlinecurve
          33 6 29 27 36 hhcurveto
          38 19 -27 -36 -5 hvcurveto
          hintmask 10110111
          -2 -12 -5 -16 -6 -12 rrcurveto
          135 hlineto
          9 21 6 25 22 vvcurveto
          hintmask 10101111
          78 7 -52 74 -125 hhcurveto
          hintmask 10101110
          -127 -83 -83 -87 -16 hvcurveto
          -53 -355 rmoveto
          57 11 49 42 54 hhcurveto
          54 35 -42 -57 -10 hvcurveto
          -57 -10 -51 -44 -53 hhcurveto
          -55 -33 44 57 9 hvcurveto
          endchar
        </CharString>
        <CharString name="aogonek">
          50 -214 84 121 123 475 callgsubr
          396 callsubr
          hintmask 11101000
          -8 callsubr
          -13 -68 -63 -36 -26 -38 -8 -42 rlinecurve
          35 callgsubr
          hintmask 11011000
          98 554 -5 callsubr
          hintmask 11101000
          -14 -79 rlineto
          46 -24 -54 42 -89 hhcurveto
          -141 -99 callsubr
          endchar
        </CharString>
        <CharString name="aogonek.ss02">
          -10 -214 84 120 112 138 86 128 114 hstem
          8 147 260 145 vstem
          475 -199 109 callsubr
          51 24 rcurveline
          -93 callgsubr
          -90 64 -53 94 85 82 39 50 37 hvcurveto
          -12 -66 -62 -37 -27 -38 -7 230 callgsubr
          -320 362 rmoveto
          40 38 37 70 vhcurveto
          134 -3 hlineto
          -90 -16 -87 -45 -63 hhcurveto
          -48 -28 24 37 hvcurveto
          endchar
        </CharString>
        <CharString name="apostrophemod.ss01">
          -427 573 57 80 109 hstem
          430 callsubr
          vstem
          127 819 rmoveto
          106 callgsubr
        </CharString>
        <CharString name="approxequal">
          -36 152 125 -60 125 45 125 -60 125 hstemhm
          20 561 hintmask 01011000
          20 153 rmoveto
          504 callgsubr
          hintmask 10011000
          222 callgsubr
          hintmask 01011000
          375 callgsubr
          235 vmoveto
          504 callgsubr
          hintmask 01101000
          222 callgsubr
          hintmask 01011000
          375 callgsubr
          endchar
        </CharString>
        <CharString name="aring">
          50 49 callgsubr
          -9 -20 68 65 100 65 396 callsubr
          hintmask 10101110
          -8 callsubr
          hintmask 01011110
          -15 -81 rlineto
          8 callgsubr
          hintmask 10101110
          -14 -79 rlineto
          46 -24 -54 42 -89 hhcurveto
          -141 -99 callsubr
          -165 440 -7 callgsubr
          endchar
        </CharString>
        <CharString name="aring.ss02">
          39 callsubr
          34 65 100 65 217 callgsubr
          hintmask 0010111110000000
          301 717 -7 callgsubr
          -110 -717 -70 callsubr
          hintmask 1000111110000000
          114 callsubr
          hintmask 0101111110000000
          -27 callgsubr
        </CharString>
        <CharString name="asciicircum">
          52 167 533 hstem
          12 613 vstem
          481 167 rmoveto
          144 hlineto
          -145 533 rlineto
          -135 hlineto
          -333 -533 rlineto
          143 hlineto
          229 367 rlineto
          endchar
        </CharString>
        <CharString name="asciitilde">
          -36 223 125 -60 125 hstemhm
          20 561 hintmask 01100000
          20 224 rmoveto
          504 callgsubr
          hintmask 10100000
          222 callgsubr
          hintmask 01100000
          375 callgsubr
          endchar
        </CharString>
        <CharString name="asterisk">
          -110 360 378 hstemhm
          266 59 -39 57 hintmask 10100000
          392 738 rmoveto
          -105 hlineto
          -2 -139 -95 88 -67 -92 121 -45 -138 -47 37 -96 rlineto
          hintmask 11000000
          123 91 -45 -138 rlineto
          103 hlineto
          2 138 92 -89 69 93 -123 47 139 47 -34 90 rlineto
          hintmask 10100000
          -126 -87 rlineto
          endchar
        </CharString>
        <CharString name="at">
          420 -213 97 109 104 -103 92 257 104 114 95 hstemhm
          68 109 100 126 211 98 154 109 hintmask 1011111110000000
          736 -6 rmoveto
          154 85 158 160 204 -142 140 -235 -307 -223 -227 -298 -209 146 -135 225 75 72 13 27 64 hvcurveto
          -20 92 rlineto
          -24 -51 -62 -11 -58 hhcurveto
          -179 -103 92 166 236 171 183 235 181 102 -93 -161 -95 -34 -126 -76 -45 -4 32 51 8 hvcurveto
          47 270 rlineto
          -117 hlineto
          -9 -52 rlineto
          39 -21 -39 21 -58 hhcurveto
          -143 -98 -135 -149 hvcurveto
          hintmask 1101111110000000
          -104 60 -66 102 69 64 32 52 39 vhcurveto
          hintmask 1011111110000000
          -52 12 42 -31 71 hhcurveto
          -122 255 rmoveto
          hintmask 1101111110000000
          -81 -58 -71 -73 -55 -25 37 52 79 48 78 76 vhcurveto
          hintmask 1011111110000000
          57 30 -40 -54 hvcurveto
          endchar
        </CharString>
        <CharString name="atilde">
          50 49 callgsubr
          -9 -20 74 88 -43 87 396 callsubr
          hintmask 10100110
          -8 callsubr
          hintmask 01010110
          -15 -81 rlineto
          8 callgsubr
          hintmask 10100110
          -14 -79 rlineto
          46 -24 -54 42 -89 hhcurveto
          -141 -99 callsubr
          -249 332 46 callsubr
          hintmask 10101010
          293 callgsubr
          hintmask 10100110
          69 callsubr
          hintmask 10101010
          167 callgsubr
          hintmask 10100110
          43 callsubr
        </CharString>
        <CharString name="atilde.ss02">
          39 callsubr
          40 88 -43 87 217 callgsubr
          hintmask 0010101110000000
          217 609 46 callsubr
          hintmask 0010110110000000
          293 callgsubr
          hintmask 0010101110000000
          69 callsubr
          hintmask 0010110110000000
          167 callgsubr
          hintmask 0010101110000000
          -40 -18 44 -56 hhcurveto
          -64 -55 -40 -91 -29 hvcurveto
          139 -609 -70 callsubr
          hintmask 1000101110000000
          114 callsubr
          hintmask 0101101110000000
          -27 callgsubr
        </CharString>
        <CharString name="b">
          50 -9 123 -93 -21 440 123 177 -20 hstemhm
          503 146 hintmask 10111000
          242 473 rmoveto
          47 267 -5 callsubr
          hintmask 01111000
          -131 -740 128 callgsubr
          hintmask 10111000
          14 79 rlineto
          -48 25 56 -40 517 callgsubr
          173 30 -91 111 -142 hhcurveto
          -84 -72 -39 -51 -42 hvcurveto
          258 -194 308 callgsubr
        </CharString>
        <CharString name="backslash">
          -81 -181 1128 hstem
          194 192 vstem
          330 947 rmoveto
          -136 hlineto
          55 -1128 rlineto
          137 hlineto
          endchar
        </CharString>
        <CharString name="bar">
          -121 929 hstem
          11 305 vstem
          176 808 rmoveto
          -165 -929 128 callgsubr
          164 929 rlineto
          endchar
        </CharString>
        <CharString name="braceleft">
          576 callsubr
          hstemhm
          130 139 -69 134 hintmask 11010000
          200 245 rmoveto
          hintmask 11100000
          -49 -70 -192 -75 vvcurveto
          -83 56 -45 88 vhcurveto
          69 hlineto
          21 119 rlineto
          -41 hlineto
          -37 -17 13 25 hvcurveto
          hintmask 11010000
          43 65 205 64 vvcurveto
          49 -25 32 -59 12 vhcurveto
          1 2 75 14 41 51 11 68 rlinecurve
          15 79 2 109 11 63 rrcurveto
          40 8 23 19 42 hhcurveto
          42 hlineto
          20 118 rlineto
          -69 hlineto
          -100 -80 -59 -106 -18 hvcurveto
          -14 -77 0 -111 -13 -70 -9 -49 -37 -30 -66 -6 -19 -109 rcurveline
          56 -4 28 -21 -39 vvcurveto
          endchar
        </CharString>
        <CharString name="braceright">
          576 callsubr
          hstem
          -3 426 vstem
          423 418 rmoveto
          -64 6 -27 30 9 49 13 70 37 108 15 80 rrcurveto
          106 18 -60 59 -100 hhcurveto
          -69 hlineto
          -20 -118 rlineto
          41 hlineto
          43 16 -19 -40 -7 hvcurveto
          -11 -63 -36 -109 -14 -79 -12 -68 23 -51 71 -14 -1 -2 rcurveline
          -75 -15 -41 -50 -12 -69 -14 -78 -3 -110 -11 -62 rrcurveto
          -41 -7 -23 -18 -42 hhcurveto
          -42 hlineto
          -21 -119 rlineto
          69 hlineto
          100 81 59 106 18 hvcurveto
          15 80 -1 109 13 69 8 49 38 31 66 5 rrcurveto
          endchar
        </CharString>
        <CharString name="bracketleft">
          -131 -189 115 891 115 hstem
          50 449 vstem
          50 -189 rmoveto
          251 hlineto
          20 115 rlineto
          -119 hlineto
          158 891 rlineto
          119 hlineto
          20 115 rlineto
          -251 hlineto
          endchar
        </CharString>
        <CharString name="bracketright">
          -132 -197 116 891 114 hstem
          27 448 vstem
          224 924 rmoveto
          -19 -114 rlineto
          119 hlineto
          -158 -891 rlineto
          -119 hlineto
          -20 -116 rlineto
          251 hlineto
          197 1121 rlineto
          endchar
        </CharString>
        <CharString name="breve">
          -289 606 106 hstem
          90 326 vstem
          412 761 -90 callsubr
          endchar
        </CharString>
        <CharString name="brokenbar">
          -278 -121 399 131 399 hstem
          32 305 vstem
          103 278 rmoveto
          -71 -399 128 callgsubr
          70 399 rlineto
          23 131 rmoveto
          71 399 -5 callsubr
          -70 -399 rlineto
          endchar
        </CharString>
        <CharString name="bullet">
          -148 194 279 hstem
          105 285 vstem
          222 194 rmoveto
          79 73 61 78 14 hvcurveto
          79 14 -51 61 -79 hhcurveto
          -78 -73 -61 -79 -14 hvcurveto
          -78 -13 51 -61 77 hhcurveto
          endchar
        </CharString>
        <CharString name="c">
          -26 -9 120 333 119 hstem
          25 145 vstem
          -35 callsubr
          endchar
        </CharString>
        <CharString name="cacute">
          -26 -9 120 333 119 hstem
          25 145 vstem
          -35 callsubr
          219 416 -51 callgsubr
          endchar
        </CharString>
        <CharString name="caron">
          -311 595 186 hstem
          78 316 vstem
          230 695 -32 callsubr
        </CharString>
        <CharString name="ccaron">
          -26 -9 120 333 119 hstem
          25 145 vstem
          -35 callsubr
          340 418 -32 callsubr
        </CharString>
        <CharString name="ccedilla">
          -26 558 callsubr
          -76 232 -96 -21 450 119 hstemhm
          25 145 hintmask 11011100
          31 277 rmoveto
          -29 -157 74 -106 133 -20 -20 -115 rcurveline
          -15 callgsubr
          75 14 -56 34 -68 hhcurveto
          7 39 rlineto
          hintmask 10101100
          117 14 90 73 46 106 rrcurveto
          -151 hlineto
          -50 -26 -40 -26 -58 hhcurveto
          -78 -42 58 108 19 hvcurveto
          108 19 62 59 78 hhcurveto
          58 32 -30 -47 8 hvcurveto
          151 hlineto
          124 -9 -80 72 -138 hhcurveto
          hintmask 11011100
          -160 -134 -112 -174 -30 hvcurveto
          endchar
        </CharString>
        <CharString name="cdotaccent">
          -26 -9 120 333 119 57 133 0 -20 hstemhm
          25 145 133 132 hintmask 11011000
          -35 callsubr
          hintmask 11101100
          327 343 -55 callgsubr
        </CharString>
        <CharString name="cedilla">
          -333 -264 82 63 76 -76 126 hstemhm
          -88 296 hintmask 10110000
          105 7 rmoveto
          -88 560 callgsubr
          -15 callgsubr
          hintmask 11010000
          75 14 -56 34 -68 hhcurveto
          endchar
        </CharString>
        <CharString name="cent">
          35 -87 198 -113 113 -92 -21 336 269 -198 118 callgsubr
          198 hstemhm
          44 135 hintmask 01000110
          544 182 rmoveto
          -130 hlineto
          -44 -20 -42 -27 -61 hhcurveto
          -82 -43 55 92 16 hvcurveto
          92 17 61 55 83 hhcurveto
          hintmask 00110010
          61 32 -27 -44 6 hvcurveto
          129 hlineto
          hintmask 00101010
          8 102 -72 71 -114 11 rrcurveto
          hintmask 00100110
          15 85 rlineto
          -64 hlineto
          -15 -85 -155 -14 -100 -105 -25 -141 rlinecurve
          -24 -141 63 -106 150 -13 rrcurveto
          hintmask 10000110
          -15 -85 rlineto
          64 hlineto
          15 85 rlineto
          hintmask 01000110
          118 11 96 71 28 102 rrcurveto
          endchar
        </CharString>
        <CharString name="circumflex">
          -311 698 -20 hstem
          63 316 vstem
          379 698 -39 callgsubr
          endchar
        </CharString>
        <CharString name="colon">
          -365 -7 561 callgsubr
          414 164 hstemhm
          5 174 hintmask 10110000
          178 75 135 callsubr
          hintmask 01110000
          151 callgsubr
          414 vmoveto
          324 callgsubr
        </CharString>
        <CharString name="colon.ss01">
          -336 0 152 260 152 hstem
          17 250 vstem
          17 hmoveto
          151 216 callgsubr
          45 260 rmoveto
          152 hlineto
          26 152 rlineto
          -151 hlineto
          endchar
        </CharString>
        <CharString name="comma">
          -373 -134 283 hstem
          -57 258 vstem
          -57 -134 502 callsubr
        </CharString>
        <CharString name="comma.ss01">
          -403 -156 61 84 129 hstem
          42.5 87.5 vstem
          118 vmoveto
          -23 -129 rlineto
          67 hlineto
          -3 -20 rlineto
          -46 -9 -21 399 callsubr
          endchar
        </CharString>
        <CharString name="copyright">
          157 -8 50 -50 131 155 145 155 130 -50 50 hstemhm
          46 55 -55 132 527 55 hintmask 10101101
          466 708 rmoveto
          -208 -168 -148 -210 -37 hvcurveto
          -210 -37 116 -148 208 hhcurveto
          208 168 148 210 37 hvcurveto
          210 37 -117 148 -207 hhcurveto
          -8 -50 rmoveto
          181 92 -121 -187 -32 hvcurveto
          -185 -33 -135 -123 -182 hhcurveto
          -182 -92 123 185 33 hvcurveto
          187 32 136 121 182 hhcurveto
          hintmask 01110011
          -16 -80 rmoveto
          105 69 -58 -97 5 364 callgsubr
          37 -5 -27 21 -43 hhcurveto
          -59 -49 -43 -87 -15 hvcurveto
          -87 -15 33 -44 59 hhcurveto
          48 28 23 35 19 hvcurveto
          124 hlineto
          -92 -39 -91 -63 -104 hhcurveto
          -125 -79 89 139 24 hvcurveto
          139 25 110 88 125 hhcurveto
          endchar
        </CharString>
        <CharString name="currency">
          -67 198 81 197 80 hstem
          98 398 vstem
          383 377 rmoveto
          -66 -12 -49 -32 -44 hhcurveto
          -45 -34 32 66 12 hvcurveto
          67 11 47 32 45 hhcurveto
          45 36 -32 -67 -12 hvcurveto
          38 -219 rmoveto
          67 58 -46 56 26 29 18 35 7 41 rlinecurve
          7 42 -5 36 -16 29 67 57 rcurveline
          -47 58 -75 -64 rlineto
          14 -26 -33 7 -37 hhcurveto
          -37 -35 -7 -14 -30 hvcurveto
          -53 64 -69 -58 49 -58 -26 -28 -18 -36 -8 -42 rlinecurve
          -7 -41 5 -35 14 -28 -66 -57 rcurveline
          48 -58 72 61 rlineto
          -14 26 32 -7 38 hhcurveto
          38 36 8 14 32 hvcurveto
          endchar
        </CharString>
        <CharString name="d">
          50 49 callgsubr
          177 -20 396 callsubr
          hintmask 10111000
          399 callgsubr
          hintmask 01111000
          -15 -82 rlineto
          113 callgsubr
          -47 -263 rlineto
          52 -29 -64 34 -73 hhcurveto
          hintmask 10111000
          71 callsubr
        </CharString>
        <CharString name="dagger">
          -11 -243 -21 716 102 hstem
          77 536 vstem
          409 543 rmoveto
          501 callsubr
          -19 -108 205 12 -142 -722 128 callgsubr
          113 722 201 -12 -54 callsubr
          endchar
        </CharString>
        <CharString name="daggerdbl">
          -11 -243 -21 238 96.5 381.5 102 hstem
          -7 620 vstem
          613 554 rmoveto
          -204 -11 501 callsubr
          -85 callsubr
          204 12 -70 -393 -200 11 -19 -108 204 12 -57 -244 258 callgsubr
          29 244 201 -12 20 108 -206 -11 70 393 201 -12 rlineto
          endchar
        </CharString>
        <CharString name="danda">
          -308 21 -21 741 -20 hstem
          86 258 vstem
          216 741 rmoveto
          358 callgsubr
          endchar
        </CharString>
        <CharString name="dcaron">
          178 49 callgsubr
          -68 57 79 109 396 callsubr
          608 79 -79 82 hintmask 10101101
          742 740 436 callsubr
          58 hlineto
          hintmask 10011101
          -4 -19 rlineto
          -40 -7 -20 -20 -34 450 callsubr
          hintmask 10011110
          84 51 51 582 callgsubr
          33 0 36 -4 39 rrcurveto
          hintmask 10101101
          -827 -461 544 callsubr
          70 40 51 42 hvcurveto
          hintmask 01101101
          -15 -82 rlineto
          113 callgsubr
          -47 -263 rlineto
          52 -29 -64 34 -73 hhcurveto
          hintmask 10101101
          71 callsubr
        </CharString>
        <CharString name="dcroat">
          56 49 callgsubr
          27 74 -74 150 396 callsubr
          hintmask 10101100
          399 callgsubr
          hintmask 01001100
          -15 -82 128 callgsubr
          104 590 rlineto
          61 hlineto
          hintmask 10010100
          13 74 rlineto
          -60 hlineto
          hintmask 10001100
          13 76 -5 callsubr
          hintmask 10010100
          -14 -76 rlineto
          -76 hlineto
          hintmask 10001100
          -13 -74 rlineto
          76 hlineto
          hintmask 10101100
          -20 -113 rlineto
          52 -29 -64 34 -73 hhcurveto
          71 callsubr
        </CharString>
        <CharString name="degree">
          -184 347 79 202 77 hstem
          66 396 vstem
          69 527 rmoveto
          -110 -20 68 -70 115 hhcurveto
          113 95 70 110 19 hvcurveto
          110 19 -69 68 -113 hhcurveto
          -115 -93 -68 -110 -19 hvcurveto
          280 -1 rmoveto
          -68 -12 -49 -32 -43 hhcurveto
          -44 -35 32 68 12 hvcurveto
          69 12 48 33 43 hhcurveto
          44 36 -33 -69 -12 hvcurveto
          endchar
        </CharString>
        <CharString name="dieresis">
          -290 620 133 hstem
          78 274 callgsubr
          vstem
          135 620 -95 callsubr
          endchar
        </CharString>
        <CharString name="divide">
          20 55 164 75 125 77 164 401 callgsubr
          277 -282 135 callsubr
          151 callgsubr
          87 441 rmoveto
          324 callgsubr
        </CharString>
        <CharString name="divide.ss01">
          20 62 152 80 125 79 152 401 callgsubr
          116 -357 rmoveto
          151 216 callgsubr
          50 284 rmoveto
          151 216 callgsubr
          endchar
        </CharString>
        <CharString name="dollar">
          26 -87 282 -200 200 -179 -21 516 196 -196 277 -81 -20 hstemhm
          33 153 -99 467 -149 149 -108 151 hintmask 1000011010000000
          211 -87 rmoveto
          65 hlineto
          14 81 147 11 96 94 18 102 rlinecurve
          26 147 -116 28 -99 26 rrcurveto
          hintmask 0011001001000000
          33 189 36 -12 18 -30 -3 -38 rlinecurve
          151 hlineto
          12 118 -71 67 -122 11 rrcurveto
          hintmask 0010100100000000
          14 81 rlineto
          -64 hlineto
          -14 -81 -133 -10 -108 -77 -21 -118 rlinecurve
          -26 -149 116 -28 99 -26 rrcurveto
          hintmask 0100011010000000
          -34 -191 -44 9 -19 32 4 46 rlinecurve
          -150 hlineto
          -19 -121 82 -69 126 -10 rrcurveto
          180 200 rmoveto
          -8 -45 -35 -34 -52 -9 31 174 rcurveline
          43 -17 29 -23 -8 -46 rrcurveto
          -168 314 rmoveto
          9 51 37 28 49 7 -31 -174 rcurveline
          -43 17 -29 24 8 47 rrcurveto
          endchar
        </CharString>
        <CharString name="dotaccent">
          -475 620 133 hstem
          80 132 vstem
          135 620 -55 callgsubr
        </CharString>
        <CharString name="dotlessi">
          273 callsubr
          hstem
          23 239 vstem
          23 hmoveto
          8 callgsubr
          endchar
        </CharString>
        <CharString name="dottedcircle">
          23 -9 84 -70 84 -52 84 -40 84 -32 84 -23 84 -25 84 -22 84 -32 84 -37 84 -57 84 -69 84 hstemhm
          50 86 -71 86 -56 86 -40 86 -34 86 -21 86 -27 86 -24 86 -33 86 -47 86 -52 86 -76 86 hintmask 000100001000001000000100
          557 409 -23 callgsubr
          -376 -286 -23 callgsubr
          hintmask 010001000000100010000000
          98 -76 -23 callgsubr
          -143 189 -23 callgsubr
          hintmask 100000010000010000100000
          267 -203 -23 callgsubr
          -252 324 -23 callgsubr
          hintmask 001000000100000100001000
          367 -278 -23 callgsubr
          -291 377 -23 callgsubr
          hintmask 000010000001000001000010
          364 -281 -23 callgsubr
          -247 323 -23 callgsubr
          hintmask 000000100010000000010001
          257 -203 -23 callgsubr
          -136 188 -23 callgsubr
          endchar
        </CharString>
        <CharString name="doubledanda">
          -58 21 -21 741 -20 hstem
          86 506 vstem
          216 741 rmoveto
          358 callgsubr
          120 hmoveto
          358 callgsubr
          endchar
        </CharString>
        <CharString name="dvA">
          206 31 callsubr
          111 hlineto
          18 108 rlineto
          -240 29 callgsubr
          hintmask 11010101
          -23 callsubr
          endchar
        </CharString>
        <CharString name="dvAA">
          514 31 callsubr
          179 hlineto
          -111 -632 467 callgsubr
          110 hlineto
          19 108 rlineto
          -549 29 callgsubr
          hintmask 11010101
          -23 callsubr
          endchar
        </CharString>
        <CharString name="dvAI">
          23 548 callsubr
          148 105 hstemhm
          66 130 hintmask 10111000
          287 19 rmoveto
          59 callgsubr
          hintmask 11011000
          465 callgsubr
          hintmask 10111000
          16 93 rlineto
          97 -22 callsubr
          -104 hlineto
          -89 229 -49 23 -146 1 rrcurveto
          -46 hlineto
          -19 -105 rlineto
          48 hlineto
          92 26 -15 -133 62 hvcurveto
          -469 221 callsubr
          endchar
        </CharString>
        <CharString name="dvAU">
          147 callgsubr
          69 81 79 82 300 callsubr
          hintmask 1110101101000000
          266 callsubr
          -86 hlineto
          306 -105 261 callsubr
          106 6 -3 -75 96 hvcurveto
          -349 29 callgsubr
          hintmask 1101011101000000
          -23 callsubr
          -43 hlineto
          22 callgsubr
          hintmask 1110101110000000
          302 callgsubr
          hintmask 1110101101000000
          41 callgsubr
          endchar
        </CharString>
        <CharString name="dvAbbreviationsign">
          -146 176 77 176 77 hstemhm
          69 345 -83 83 hintmask 11100000
          272 506 rmoveto
          -101 -82 -68 -97 -17 hvcurveto
          -96 -17 60 -69 100 hhcurveto
          100 79 68 96 17 hvcurveto
          98 17 -58 68 -98 hhcurveto
          hintmask 11010000
          -13 -77 rmoveto
          51 29 -38 -51 -8 hvcurveto
          -51 -9 -43 -36 -51 hhcurveto
          -54 -32 36 52 9 hvcurveto
          51 9 45 37 54 hhcurveto
          endchar
        </CharString>
        <CharString name="dvAcandra">
          206 29 callsubr
          81 96 -96 197 300 callsubr
          hintmask 1101101001000000
          246 465 rmoveto
          22 callgsubr
          hintmask 1110101010000000
          302 callgsubr
          hintmask 1110101001000000
          41 callgsubr
          129 hlineto
          76 callgsubr
          -240 29 callgsubr
          hintmask 1101010101000000
          -23 callsubr
          776 562 144 callsubr
        </CharString>
        <CharString name="dvAnusvara">
          -628 822 155 hstem
          -143 159 vstem
          15 401 callsubr
          44 hhcurveto
          43 41 34 43 8 hvcurveto
          endchar
        </CharString>
        <CharString name="dvAnusvara.amI">
          -628 822 155 hstem
          50 159 vstem
          208 401 callsubr
          43 hhcurveto
          45 40 34 43 8 hvcurveto
          endchar
        </CharString>
        <CharString name="dvAvagraha">
          -39 52 109 402 109 hstem
          153 132 51 132 vstem
          281 52 rmoveto
          99 70 55 83 15 hvcurveto
          29 170 -225 68 16 90 rrcurveto
          38 6 36 7 28 hhcurveto
          186 hlineto
          20 109 rlineto
          -219 hlineto
          -92 -77 -41 -93 -17 hvcurveto
          -30 -171 226 -68 -16 -90 rrcurveto
          -28 -4 -25 -20 -40 hhcurveto
          -238 hlineto
          -20 -109 rlineto
          endchar
        </CharString>
        <CharString name="dvB">
          -227 70 90 304 89 79 108 hstem
          46 107 315 102 vstem
          567 315 rmoveto
          119 19 -69 119 -172 -29 callgsubr
          169 105 113 132 21 hvcurveto
          -229 149 -71 callgsubr
          287 168 rmoveto
          -58 callgsubr
          -601 -107 callgsubr
          259 322 callsubr
          endchar
        </CharString>
        <CharString name="dvBA">
          61 21 -21 71 93 303 85 80 108 hstem
          47 113 vstem
          534 hmoveto
          110 -51 callsubr
          -730 -107 callgsubr
          494 hlineto
          132 callsubr
          -142 -114 -90 -142 -25 hvcurveto
          -145 6 callgsubr
          endchar
        </CharString>
        <CharString name="dvBH">
          -95 76 109 170 105 65 224 515 callgsubr
          hstemhm
          41 89 callgsubr
          hintmask 11011010
          234 185 -40 callgsubr
          201 hlineto
          18 105 rlineto
          -201 280 callsubr
          hintmask 11010110
          -126 -79 -78 -107 -20 hvcurveto
          hintmask 11100110
          65 callgsubr
          hintmask 11010110
          -25 callsubr
          -74 240 callsubr
          -23 hvcurveto
          hintmask 11011010
          51 callgsubr
        </CharString>
        <CharString name="dvBHA">
          202 407 callsubr
          170 105 65 124 callsubr
          hintmask 1110101010000000
          234 185 -40 callgsubr
          138 hlineto
          -62 -355 467 callgsubr
          112 hlineto
          18 250 callgsubr
          10 60 rlineto
          hintmask 1110010110000000
          201 callgsubr
          hintmask 1111000110000000
          65 callgsubr
          hintmask 1110010110000000
          -25 callsubr
          -74 240 callsubr
          -23 hvcurveto
          hintmask 1110101010000000
          51 callgsubr
        </CharString>
        <CharString name="dvBH_LA">
          807 355 callgsubr
          -215 124 callsubr
          63 131 215 101.5 219.5 133 hintmask 0100100010101111
          234 185 -40 callgsubr
          117 hlineto
          -6 -17 -5 -18 -3 -20 rrcurveto
          hintmask 1000001000101111
          -143 -27 72 -113 165 hhcurveto
          9 8 1 1 13 hvcurveto
          21 113 rlineto
          -1 -10 -9 -1 -7 hhcurveto
          -84 -36 158 callsubr
          72 13 45 170 callsubr
          20 -64 -79 -16 hvcurveto
          hintmask 1001000000101111
          -2 -21 rlineto
          107 hlineto
          3 21 rlineto
          hintmask 1000001000101111
          80 15 43 63 75 hhcurveto
          68 26 -54 -71 -12 hvcurveto
          -82 -14 -57 -54 -80 hhcurveto
          -8 -12 1 1 -7 hvcurveto
          -21 -113 rlineto
          -1 11 17 -1 8 hhcurveto
          164 -2 104 101 26 144 20 116 -42 80 -72 32 rrcurveto
          hintmask 1010000010101111
          20 117 rlineto
          213 1 callsubr
          -886 -93 callsubr
          545 hlineto
          -18 -105 -78 -15 -50 -51 -29 -55 rlinecurve
          -2 hlineto
          hintmask 1000010010101111
          63 -12 -44 62 -101 hhcurveto
          hintmask 1000100001011111
          -67 -63 -23 -48 -48 hvcurveto
          -162 hlineto
          10 60 rlineto
          201 callgsubr
          hintmask 1000100100011111
          65 callgsubr
          hintmask 1000100001011111
          -25 callsubr
          -74 240 callsubr
          -23 hvcurveto
          hintmask 0100100010101111
          51 callgsubr
        </CharString>
        <CharString name="dvBH_NA">
          717 440 callsubr
          26 124 callsubr
          68 424 hintmask 0101001010100000
          234 185 -40 callgsubr
          122 hlineto
          -7 -17 -5 -18 -4 -19 rrcurveto
          hintmask 0010101000110000
          -124 -21 82 -90 126 hhcurveto
          107 103 68 121 20 508 callsubr
          151 hlineto
          hintmask 1000001000100000
          -69 -391 rlineto
          130 hlineto
          278 callgsubr
          -777 -107 callgsubr
          536 hlineto
          hintmask 0010101000100000
          142 callsubr
          hintmask 0011000101100000
          -58 -53 -13 -26 -44 hvcurveto
          -194 280 callsubr
          -126 -81 -78 -107 -18 hvcurveto
          hintmask 0010110001100000
          65 callgsubr
          hintmask 0011000101100000
          -1 12 1 11 2 11 rrcurveto
          49 7 34 81 callsubr
          -83 rlineto
          -74 240 callsubr
          -23 hvcurveto
          hintmask 0100101010100000
          -116 -20 71 -77 124 hhcurveto
          hintmask 0101001010100000
          131 84 82 350 callgsubr
          hintmask 0010101000100000
          233 -3 -106 callgsubr
          endchar
        </CharString>
        <CharString name="dvBH_R">
          -99 -83 287 -107 107 158 103 62 222 515 callgsubr
          hstemhm
          115 126 145 116 hintmask 01101110
          374 callsubr
          10 45 193 callgsubr
          204 hlineto
          18 103 rlineto
          -204 hlineto
          10 55 rlineto
          416 callsubr
          -126 -80 -77 -105 -18 hvcurveto
          hintmask 01110110
          463 callgsubr
          hintmask 01101110
          198 callgsubr
          506 callgsubr
          hintmask 10101110
          -126 -399 rmoveto
          306 261 21 118 -469 -379 rlineto
          endchar
        </CharString>
        <CharString name="dvBH_RA">
          223 -83 287 -183 -21 97 107 158 103 62 222 116 callgsubr
          115 126 145 116 hintmask 0111010010000000
          374 callsubr
          10 45 193 callgsubr
          168 hlineto
          -17 -98 rlineto
          hintmask 1001010010000000
          -427 -347 rlineto
          142 hlineto
          270 229 rlineto
          hintmask 0111010010000000
          -26 -146 rlineto
          117 -102 callgsubr
          112 -22 callsubr
          -234 hlineto
          570 callgsubr
          hintmask 0111001110000000
          416 callsubr
          -126 -80 -77 -105 -18 hvcurveto
          hintmask 0111100110000000
          463 callgsubr
          hintmask 0111001110000000
          198 callgsubr
          hintmask 0111010010000000
          506 callgsubr
          endchar
        </CharString>
        <CharString name="dvBH_R_YA">
          638 -83 287 -183 325 callsubr
          -104 107 158 98 67 222 116 callgsubr
          115 126 145 116 69 129 hintmask 0101101001100000
          374 callsubr
          9 46 193 callgsubr
          108 hlineto
          -7 -48 2 -43 12 -37 rrcurveto
          hintmask 1000101001100000
          -391 -317 rlineto
          142 hlineto
          hintmask 0110101001100000
          289 246 rlineto
          -45 40 64 -25 82 14 callgsubr
          -153 hlineto
          11 60 rlineto
          hintmask 0101100111100000
          416 callsubr
          -126 -81 -77 -105 -17 hvcurveto
          hintmask 0101110011100000
          463 callgsubr
          hintmask 0101100111100000
          13 0 9 2 11 vhcurveto
          48 8 32 31 44 hhcurveto
          51 15 -38 -58 -10 hvcurveto
          -15 -83 rlineto
          -76 hlineto
          -117 -106 -58 -117 -22 hvcurveto
          -112 -20 73 -76 122 hhcurveto
          hintmask 0101101001100000
          506 callgsubr
          hintmask 0110101001100000
          387 -115 11 callsubr
          endchar
        </CharString>
        <CharString name="dvBH_VA">
          569 485 callsubr
          124 callsubr
          hintmask 1001001000100000
          813 178 rmoveto
          -77 -47 52 81 14 hvcurveto
          hintmask 1000101000100000
          120 callgsubr
          86 33 -62 -64 -8 hvcurveto
          -2 -13 rlineto
          hintmask 1001001000100000
          -60 -15 -53 -65 -88 hhcurveto
          hintmask 0011001010100000
          -579 7 -40 callgsubr
          118 253 callgsubr
          hintmask 0101001000100000
          331 callsubr
          hintmask 1000101000100000
          72 callsubr
          hintmask 1001000101100000
          221 callgsubr
          -126 -79 -78 -107 -20 hvcurveto
          hintmask 1001010001100000
          65 callgsubr
          hintmask 1001000101100000
          -25 callsubr
          -74 240 callsubr
          -23 hvcurveto
          hintmask 0011001010100000
          51 callgsubr
        </CharString>
        <CharString name="dvBH_YA">
          638 407 callsubr
          -92 108 154 105 65 124 callsubr
          67 129 hintmask 1101010101100000
          234 185 -33 callsubr
          hintmask 1011010001100000
          612 16 11 callsubr
          hintmask 1101010001100000
          -387 95 438 callsubr
          105 hlineto
          hintmask 1011010001100000
          -162 -22 92 -100 164 14 callgsubr
          -150 489 callsubr
          hintmask 1011001011100000
          201 callgsubr
          hintmask 1011100011100000
          65 callgsubr
          hintmask 1011001011100000
          -25 callsubr
          -74 240 callsubr
          -23 hvcurveto
          hintmask 1101010101100000
          -116 -20 71 -77 124 hhcurveto
          hintmask 1101010001100000
          131 84 82 350 callgsubr
          endchar
        </CharString>
        <CharString name="dvB_BA">
          476 21 -21 70 90 -89 93 300 89 -86 252 callgsubr
          46 107 315 108 hintmask 1101001110000000
          130 callgsubr
          612 -464 rmoveto
          110 -51 callsubr
          -1146 -107 callgsubr
          910 hlineto
          hintmask 1100101110000000
          132 callsubr
          -84 -75 -32 -55 -51 hvcurveto
          hintmask 1101001110000000
          52 -35 -64 36 -94 -29 callgsubr
          95 74 36 54 51 hvcurveto
          hintmask 1011001110000000
          -56 35 62 -33 78 403 callgsubr
          hintmask 1101001110000000
          -540 160 -79 callsubr
          hintmask 1010010110000000
          423 4 -10 callsubr
          53 303 12 callsubr
          endchar
        </CharString>
        <CharString name="dvB_BHA">
          614 21 -21 70 90 -84 109 170 105 4 89 79 272 callgsubr
          46 107 642 120 hintmask 1011010110000000
          646 498 callgsubr
          57 hhcurveto
          71 hlineto
          -11 -66 rlineto
          -63 -12 -35 -41 -55 hhcurveto
          223 111 rmoveto
          11 59 rlineto
          138 hlineto
          -62 -355 467 callgsubr
          112 hlineto
          18 250 callgsubr
          11 60 rlineto
          hintmask 1100101110000000
          130 23 -35 99 -143 hhcurveto
          hintmask 1101010110000000
          318 callgsubr
          -641 -107 callgsubr
          685 hlineto
          4 9 10 3 11 hhcurveto
          48 337 callsubr
          -14 -83 rlineto
          -75 hlineto
          -53 -50 -12 -25 -41 hvcurveto
          hintmask 1100110110000000
          74 -26 -70 56 -118 -29 callgsubr
          85 69 29 45 51 hvcurveto
          hintmask 1010110110000000
          -43 28 54 -25 70 hhcurveto
          hintmask 1011010110000000
          132 84 91 callsubr
          hintmask 1100110110000000
          -531 168 -57 callsubr
          endchar
        </CharString>
        <CharString name="dvB_BH_RA">
          636 -83 287 -183 -21 70 90 -63 107 158 103 -1 89 79 272 callgsubr
          46 107 606.5 117.5 -78 116 hintmask 0110011010100000
          338 464 -57 callsubr
          hintmask 0101101011000000
          366 44 rmoveto
          -49 -31 32 50 9 hvcurveto
          47 10 45 29 54 hhcurveto
          75 232 callsubr
          -64 -11 -36 -40 -57 hhcurveto
          hintmask 0110101010100000
          57 428 rmoveto
          5 10 11 2 12 hhcurveto
          51 14 -38 -58 -10 hvcurveto
          -14 -78 rlineto
          -76 hlineto
          -55 -52 -13 -25 -42 hvcurveto
          hintmask 0110011010100000
          72 -27 -69 54 -116 -29 callgsubr
          92 74 34 52 51 hvcurveto
          hintmask 0101101011000000
          -37 30 51 -22 66 hhcurveto
          128 86 85 134 23 hvcurveto
          8 46 rlineto
          167 hlineto
          -17 -99 rlineto
          hintmask 1000011010100000
          -427 -346 rlineto
          143 hlineto
          270 229 rlineto
          hintmask 0110101010100000
          -26 -146 rlineto
          117 hlineto
          111 163 callsubr
          -235 hlineto
          -49 -275 rlineto
          -167 hlineto
          10 55 rlineto
          hintmask 0110010110100000
          130 22 -33 99 -142 hhcurveto
          hintmask 0110011010100000
          318 callgsubr
          -643 335 callsubr
        </CharString>
        <CharString name="dvB_DA">
          400 -27 316 -219 90 -82 103 249 111 -77 183 callgsubr
          hintmask 01001110
          338 464 -57 callsubr
          809 472 rmoveto
          -104 callgsubr
          -1069 -107 callgsubr
          814 hlineto
          hintmask 01010110
          -16 -91 rlineto
          -51 hlineto
          -91 -83 -27 -55 -57 hvcurveto
          hintmask 01001110
          55 -34 -65 39 -98 -29 callgsubr
          92 74 34 52 51 hvcurveto
          hintmask 00101110
          -51 31 56 -27 65 hhcurveto
          62 53 22 38 35 hvcurveto
          hintmask 10001110
          -24 callgsubr
          hintmask 00110110
          -71 callsubr
          488 callsubr
        </CharString>
        <CharString name="dvB_DHA">
          499 21 -21 70 89 -74 107 168 104 2 493 callsubr
          346 111 149 101 hintmask 1100110011100000
          429 callgsubr
          205 -192 rcurveline
          -21 -28 -34 -13 -40 hhcurveto
          905 473 rmoveto
          -104 callgsubr
          -238 -105 callgsubr
          -46 -264 rlineto
          hintmask 1011001011100000
          24 callgsubr
          44 8 35 179 callsubr
          hintmask 1100100111100000
          299 callsubr
          hintmask 1100110011100000
          -23 -22 437 callsubr
          -598 -107 callgsubr
          493 122 callsubr
          -52 -10 -64 -37 -22 -76 -7 -18 -9 -17 -12 -15 -205 190 callgsubr
          84 73 32 56 51 hvcurveto
          hintmask 1010110011100000
          -48 32 64 -25 75 549 callsubr
          129 hlineto
          111 632 rlineto
          endchar
        </CharString>
        <CharString name="dvB_DH_VA">
          897 0 178 -108 89 -84 103 -94 108 168 104 -22 104 -80 493 callsubr
          347 337 callgsubr
          hintmask 0100010100111000
          429 callgsubr
          206 -192 rcurveline
          -21 -29 -34 -13 -40 hhcurveto
          1192 473 rmoveto
          67 callsubr
          -619 hlineto
          -20 -56 callgsubr
          383 hlineto
          149 callsubr
          hintmask 0001100010111000
          156 callsubr
          hintmask 1000001001111000
          124 36 -59 79 -122 hhcurveto
          hintmask 0100001100111000
          -23 559 callgsubr
          -599 -107 callgsubr
          494 122 callsubr
          -52 -9 -64 -36 -22 -76 -7 -19 -9 -17 -12 -16 -206 190 callgsubr
          85 74 33 58 52 hvcurveto
          hintmask 0001001100111000
          -52 37 75 -25 90 473 callsubr
          hintmask 0010001100111000
          -66 28 63 252 callsubr
          hintmask 1000010100111000
          471 callgsubr
          -229 178 88 callgsubr
          endchar
        </CharString>
        <CharString name="dvB_JA">
          618 21 -21 70 90 -48 113 157 110 -28 183 callgsubr
          315 110 hintmask 11001111
          286 160 161 callgsubr
          1026 472 rmoveto
          -58 callgsubr
          -1288 -107 callgsubr
          1047 hlineto
          hintmask 10110111
          314 callsubr
          -29 -162 rlineto
          333 callgsubr
          hintmask 11001111
          247 callsubr
          310 callgsubr
          hintmask 10110111
          259 callgsubr
          hintmask 11001111
          -864 -168 162 callgsubr
          endchar
        </CharString>
        <CharString name="dvB_JHA">
          707 349 callgsubr
          -83 329 -259 90 72 97 -91 91 120 93 -76 87 79 -25 callgsubr
          47 109 687 118 hintmask 0001000111000000
          289 160 rmoveto
          -84 -63 56 95 17 hvcurveto
          5 29 11 26 14 21 209 -194 rcurveline
          -21 -29 -36 -12 -44 hhcurveto
          hintmask 0010001011000000
          402 169 rmoveto
          -45 383 callgsubr
          42 hhcurveto
          220 hlineto
          17 93 rlineto
          -1 hlineto
          16 90 rlineto
          194 hlineto
          -53 -303 rlineto
          70 -329 rmoveto
          111 433 callgsubr
          -1376 -93 callsubr
          820 hlineto
          -16 -90 rlineto
          -126 hlineto
          -97 -94 -43 -110 -18 hvcurveto
          -7 -34 -7 -43 -16 -43 -26 -34 rlinecurve
          hintmask 0001010111100000
          -208 195 rlineto
          24 33 42 12 43 hhcurveto
          25 22 -4 -6 22 hvcurveto
          15 86 rlineto
          7 -24 -32 4 -26 hhcurveto
          -172 -105 -101 -138 -25 hvcurveto
          -141 -24 94 -103 153 hhcurveto
          143 86 84 110 42 hvcurveto
          26 -16 33 -8 35 -2 rrcurveto
          111 hlineto
          72 30 -32 -50 -9 hvcurveto
          hintmask 0100000111100000
          -39 -7 -33 -34 -61 hhcurveto
          hintmask 1000000111000000
          -67 -31 38 49 3 hvcurveto
          -111 hlineto
          -44 -251 514 callsubr
          hintmask 0100100111100000
          23 131 rlineto
          -20 13 36 -42 84 hhcurveto
          110 69 66 86 14 hvcurveto
          7 38 -4 31 -13 23 rrcurveto
          148 hlineto
          hintmask 0010000111000000
          -40 -232 rlineto
          endchar
        </CharString>
        <CharString name="dvB_J_YA">
          1073 21 -21 70 90 -67 108 -89 113 123 108 -88 88 8 183 callgsubr
          315 110 433 127 hintmask 1010011111100000
          1281 201 rmoveto
          -106 -50 72 95 16 hvcurveto
          115 13 74 71 17 472 callgsubr
          -47 -271 rlineto
          -94 -21 -77 -66 -101 hhcurveto
          hintmask 1100001111100000
          -943 263 162 callgsubr
          -52 -304 161 callgsubr
          1482 472 115 callgsubr
          -1742 -107 callgsubr
          1207 232 callsubr
          hintmask 1001101111100000
          -81 -14 -54 -41 -112 hhcurveto
          -271 hlineto
          -23 -126 rlineto
          333 callgsubr
          hintmask 1100001111100000
          247 callsubr
          310 callgsubr
          hintmask 1001101111100000
          -34 25 43 -20 65 hhcurveto
          134 -1 87 326 callgsubr
          4 21 rcurveline
          70 hlineto
          24 20 0 1 17 hvcurveto
          hintmask 1010001111100000
          -153 -11 87 -103 152 hhcurveto
          90 71 33 49 47 hvcurveto
          -31 -175 -44 callsubr
          endchar
        </CharString>
        <CharString name="dvB_JxA">
          618 -109 156 -26 -21 70 90 -48 113 157 110 -28 183 callgsubr
          315 110 hintmask 1010011110000000
          680 -32 rmoveto
          -107 callsubr
          hintmask 0110101110000000
          -394 192 161 callgsubr
          1026 472 rmoveto
          -58 callgsubr
          -1288 -107 callgsubr
          1047 hlineto
          314 callsubr
          -29 -162 rlineto
          hintmask 0101011110000000
          333 callgsubr
          247 callsubr
          hintmask 0110011110000000
          310 callgsubr
          hintmask 0101101110000000
          259 callgsubr
          hintmask 0110011110000000
          -864 -168 162 callgsubr
          endchar
        </CharString>
        <CharString name="dvB_LA">
          682 44 113 -87 90 94 483 callsubr
          -276 183 callgsubr
          315 106 215 101.5 218.5 133 hintmask 1010001111110000
          1237 287 7 callgsubr
          -1352 -107 callgsubr
          1010 hlineto
          -17 -105 -78 -14 -50 -52 -29 -55 rlinecurve
          -3 hlineto
          hintmask 0100100111110000
          63 -11 -45 62 -100 hhcurveto
          -61 -58 -23 -46 -44 hvcurveto
          hintmask 0100001111110000
          54 -35 -64 37 -96 -29 callgsubr
          85 69 29 45 50 hvcurveto
          hintmask 1000010011110000
          -61 29 61 -39 92 hhcurveto
          9 8 184 callgsubr
          21 113 rlineto
          -1 -10 -7 -1 -9 hhcurveto
          -84 -35 158 callsubr
          72 13 223 callgsubr
          20 -64 -79 -14 hvcurveto
          hintmask 0101000011110000
          -4 -21 rlineto
          108 hlineto
          3 21 rlineto
          hintmask 1000010011110000
          80 15 43 63 74 hhcurveto
          68 27 -54 -71 -13 hvcurveto
          -82 -14 -57 -54 -79 hhcurveto
          -9 -11 1 1 -8 hvcurveto
          -19 -113 rlineto
          -1 10 16 -1 9 hhcurveto
          hintmask 1010001111110000
          163 -2 105 101 25 144 rrcurveto
          hintmask 0100001111110000
          -952 -127 -79 callsubr
          53 304 -71 callgsubr
          endchar
        </CharString>
        <CharString name="dvB_L_YA">
          1170 435 callgsubr
          -87 90 -67 497 callgsubr
          -276 89 -89 276 -108 435 callsubr
          315 106 214 102.5 212.5 129 hintmask 1010000101111100
          285 160 -79 callsubr
          hintmask 1001010001111100
          1093 41 rmoveto
          -107 -54 66 94 18 hvcurveto
          1 vlineto
          123 10 66 70 20 113 279 callsubr
          -81 -71 -103 hhcurveto
          486 431 rmoveto
          -58 callgsubr
          -1840 -107 callgsubr
          1304 hlineto
          -9 -55 -12 -71 -33 -45 -60 -20 rlinecurve
          -25 61 -59 30 -69 -1 -103 -2 -64 -58 -34 -65 rrcurveto
          -2 hlineto
          63 -12 -45 62 -99 hhcurveto
          -62 -58 -22 -47 -44 hvcurveto
          hintmask 1010000101111100
          54 -35 -64 37 -96 -29 callgsubr
          87 70 30 47 50 hvcurveto
          hintmask 1100001000111100
          -63 29 60 -40 90 hhcurveto
          9 9 184 callgsubr
          20 113 rlineto
          -1 -9 -8 -1 -8 hhcurveto
          -84 -36 158 callsubr
          72 13 45 53 70 hhcurveto
          74 17 -64 -79 -11 hvcurveto
          hintmask 1010100000111100
          -4 -21 rlineto
          108 hlineto
          3 21 rlineto
          hintmask 1001001000111100
          12 80 46 60 74 3 45 1 32 -24 5 -37 rrcurveto
          -161 -22 83 -104 165 hhcurveto
          93 72 34 51 48 hvcurveto
          -31 -178 rlineto
          129 hlineto
          hintmask 1010000101111100
          -97 callgsubr
          hintmask 1010000010111100
          -1416 -168 -71 callgsubr
          endchar
        </CharString>
        <CharString name="dvB_NA">
          606 0 499 -429 90 -73 188 callsubr
          -35 183 callgsubr
          315 418 hintmask 00110110
          582 293 -106 callgsubr
          hintmask 01001111
          -244 171 -57 callsubr
          1016 472 rmoveto
          -104 callgsubr
          -1276 -107 callgsubr
          1035 hlineto
          hintmask 01010110
          142 callsubr
          -68 -62 -18 -36 -47 hvcurveto
          hintmask 01001110
          63 -31 -67 45 -106 -29 callgsubr
          95 75 36 54 51 hvcurveto
          hintmask 00110111
          -45 33 56 -28 70 -35 callgsubr
          hintmask 10000110
          -69 -391 -91 callgsubr
        </CharString>
        <CharString name="dvB_R">
          -227 -59 219 -90 90 304 183 callgsubr
          315 102 hintmask 01111100
          625 632 rmoveto
          -58 callgsubr
          -601 -107 callgsubr
          541 -317 rmoveto
          119 19 -69 119 -172 -29 callgsubr
          3 hlineto
          hintmask 10111100
          -148 -129 rlineto
          131 hlineto
          203 190 rlineto
          hintmask 01111100
          58 45 37 67 11 72 rrcurveto
          -229 149 -57 callsubr
          endchar
        </CharString>
        <CharString name="dvB_RA">
          60 -59 223 -164 561 callgsubr
          79 85 303 85 80 -25 callgsubr
          47 113 hintmask 00111110
          417 133 319 callsubr
          -729 -107 callgsubr
          494 hlineto
          -28 -159 rlineto
          46 -28 -53 33 -78 hhcurveto
          -140 -117 -90 -142 -25 hvcurveto
          -24 -136 77 -96 126 -9 rrcurveto
          hintmask 10001110
          225 callsubr
          hintmask 01001110
          289 callgsubr
        </CharString>
        <CharString name="dvB_SA">
          604 283 callsubr
          -137 90 159 92 -92 105 40 183 callgsubr
          hintmask 10001111
          130 callgsubr
          hintmask 00101111
          -53 -304 -79 callsubr
          587 396 -15 callsubr
          -1273 -107 callgsubr
          731 151 callsubr
          hintmask 00110111
          -86 -16 -52 -59 -111 hhcurveto
          -3 hlineto
          80 -22 -70 62 -125 -29 callgsubr
          71 60 20 33 46 hvcurveto
          hintmask 10001111
          -79 17 63 -53 103 hhcurveto
          hintmask 01001111
          -47 callgsubr
          -124 hlineto
          hintmask 10001111
          -96 callsubr
          407 hlineto
          hintmask 01001111
          -56 -319 -91 callgsubr
        </CharString>
        <CharString name="dvB_SHA">
          614 423 callgsubr
          -149 90 139 109 56 89 79 272 callgsubr
          46 107 315 -62 callgsubr
          495 hintmask 0101110100000000
          894 219 rmoveto
          -126 hlineto
          hintmask 1001110110000000
          -71 -12 -39 257 callgsubr
          49 61 12 505 callgsubr
          129 72 424 callgsubr
          hintmask 1001101101000000
          140 26 -88 81 -125 hhcurveto
          -28 -27 -4 -7 -24 hvcurveto
          1 2 rlineto
          hintmask 0011110100000000
          -649 -107 callgsubr
          697 hlineto
          3 10 12 2 12 hhcurveto
          52 31 -39 -60 -10 hvcurveto
          -95 -17 -93 -35 -93 hhcurveto
          -64 hlineto
          81 -21 -71 64 -126 -29 callgsubr
          72 61 21 34 47 hvcurveto
          hintmask 1001110100000000
          -83 19 70 -50 107 hhcurveto
          hintmask 0101110100000000
          146 82 91 136 18 hvcurveto
          hintmask 0011110110000000
          -556 245 -57 callsubr
          hintmask 0101110100000000
          802 -160 rmoveto
          111 -51 callsubr
          -241 hlineto
          -131 -740 rlineto
          endchar
        </CharString>
</ttFont>
